<?xml version="1.0" standalone="no"?>
<!DOCTYPE svg PUBLIC "-//W3C//DTD SVG 1.1//EN" "http://www.w3.org/Graphics/SVG/1.1/DTD/svg11.dtd" >
<svg xmlns="http://www.w3.org/2000/svg">
<metadata>Generated by IcoMoon</metadata>
<defs>
<font id="jzfont" horiz-adv-x="1024">
<font-face units-per-em="1024" ascent="896" descent="-128" />
<missing-glyph horiz-adv-x="1024" />
<glyph unicode="&#x20;" d="" />
<glyph unicode="&#xe602;" glyph-name="angle-left2" d="M754.556-128l-526.302 511.428 526.302 512.572 41.189-40.045-486.257-472.527 486.257-472.527z" />
<glyph unicode="&#xe603;" glyph-name="angle-right2" d="M268.3 896l527.446-512.572-527.446-511.428-40.045 38.901 485.113 472.527-485.113 472.527z" />
<glyph unicode="&#xe605;" glyph-name="selected-o" d="M798 895.999h-571.999q-93.996 0-159.998-66.002t-66.002-159.998v-571.999q0-93.996 66.002-159.998t159.998-66.002h571.999q93.996 0 159.998 66.002t66.002 159.998v571.999q0 93.996-66.002 159.998t-159.998 66.002zM987 119.014q0-87.003-61.499-148.502t-148.502-61.499h-529.997q-87.003 0-148.502 61.499t-61.499 148.502v529.997q0 87.003 61.499 148.502t148.502 61.499h529.997q87.003 0 148.502-61.499t61.499-148.502v-529.997zM840.997 570.006l-53.001 48.995-348-369.999-208.993 187.999-47.999-53.996 259.999-234 0.996 0.996 0.996-0.996z" />
<glyph unicode="&#xe608;" glyph-name="qq-space" d="M778.984 208.758q-62.627 4.395-179.639 13.734t-144.481 11.536l17.579 8.79q49.442 35.159 148.876 106.575t148.876 106.575h-17.579q-30.764 13.185-86.798 21.425t-119.76 8.79-127.451-3.296-117.562-13.185-82.403-21.425q64.824-4.395 192.824-13.185t192.824-13.185q-2.197-2.197-3.296-4.944t-2.197-6.043l-3.296-5.494q-59.33-38.455-166.455-108.223t-148.876-97.236v-8.79q68.12-8.79 141.734-10.987t157.116 3.296 136.24 10.438 141.734 14.833v-8.79h-17.579q-7.691-6.592-18.678-13.185t-13.185-9.888-5.494-13.734-5.494-31.313l20.876-104.378q14.283-71.416 21.974-108.773l-7.691-8.79h-35.159q-40.652 34.060-86.249 64.275t-107.124 57.682-113.167 31.863q-88.996-50.541-271.382-153.82l-10.987 5.494q-6.592 3.296-12.635 6.043t-11.536 4.944q4.395 23.073 61.528 334.009-40.652 36.258-122.506 110.421t-122.506 111.519q1.099 3.296 4.395 9.888v2.197l1.099 1.099v1.099l1.099 2.197v2.197q0 1.099 1.099 1.099 0 1.099 0.549 2.747t0.549 2.747q72.515 9.888 146.678 19.227t177.442 23.622q17.579 30.764 79.107 139.536t95.588 168.103h17.579q38.455-83.502 148.326-316.429 63.725-6.592 180.189-18.129t161.511-15.931q1.099-3.296 4.395-9.339t4.395-8.24q-27.468-26.369-113.167-109.871t-131.845-128.549v-42.85z" />
<glyph unicode="&#xe609;" glyph-name="phone-o" d="M982.751 142.984q-18.753 15.004-76.424 46.419t-116.747 57.669q-16.881 7.502-33.756 7.502-23.444 0-40.321-12.189t-25.321-30.007q-18.753-38.448-39.386-48.76-5.625-2.815-15.942-2.815-12.189 0-25.321 3.752-3.752 1.877-15.004 6.563-28.132 12.189-48.291 22.037t-58.139 37.979-68.92 64.702q-75.020 88.146-82.521 115.339 0.938 6.563-1.877 12.189-15.004 28.132-1.877 46.891 15.942 21.567 44.074 42.197 30.007 21.567 40.79 48.291t7.502 48.76-15.473 51.106q-13.127 32.821-60.953 119.092l-11.252 18.753q-7.502 11.252-10.317 16.881-3.752 5.625-7.971 10.787t-8.44 8.44-9.847 5.625-9.379 3.287-10.317 1.877-9.379 0.938h-40.321q-0.938 0-2.815 1.407t-2.815 1.407q-39.386-12.189-85.332-71.266-140.659-180.042 46.891-470.727 31.884-49.699 88.615-109.714t124.248-115.808 143.94-98.928 140.191-56.262q38.448-7.502 76.892-7.502 48.76 0 92.834 13.597t71.266 30.477 50.637 39.386 30.946 32.821 12.189 16.881q0.938 1.877 2.346 5.625t1.877 13.597-2.346 20.16-12.658 24.382-25.787 27.193zM984.631 69.843q-4.687-8.44-12.658-17.822t-28.6-27.662-44.074-31.884-60.485-24.382-77.36-10.787q-33.756 0-69.39 7.502-59.077 12.189-131.75 53.925t-137.376 95.179-119.092 111.122-84.394 103.62q-87.208 135.968-99.397 239.588t50.637 183.326q15.942 19.691 30.477 33.288t22.506 18.287 11.72 4.687h36.571q1.877 0 5.156-0.469t5.156-0.938 4.218-1.877 3.752-3.287 2.346-3.752q3.752-5.625 11.252-18.287t11.252-20.16q47.822-87.208 59.077-114.401 16.881-33.756 13.127-57.201t-32.821-45.011q-33.756-23.444-52.513-50.637-24.382-33.756-4.687-80.645 0.938-32.821 92.834-140.659 73.143-85.332 189.421-135.030 11.252-4.687 15.004-6.563 0.938 0 1.877-0.938 17.822-5.625 38.448-5.625 18.753 0 33.756 6.563 30.946 15.942 56.262 66.579 10.317 20.63 30.946 20.63 8.44 0 18.753-3.752 57.201-26.255 112.529-56.262t71.266-43.135q30.946-24.382 26.255-43.135z" />
<glyph unicode="&#xe60a;" glyph-name="user2-o" d="M985.758-128h-62.787q-9.133 119.866-80.482 215.759t-179.799 139.273q-71.92-35.389-150.69-35.389t-150.69 35.389q-108.451-43.38-179.799-139.273t-79.34-215.759h-63.929q7.991 127.858 78.199 233.454t180.941 161.534q-62.787 50.23-98.176 122.15t-35.389 154.114q0 146.122 102.171 249.435t246.582 103.313 246.011-103.313 101.601-249.435q0-82.194-35.389-154.114t-97.034-122.15q109.592-55.938 179.799-161.534t78.199-233.454zM797.395 543.821q0 119.295-83.335 203.773t-201.489 84.477-202.060-84.477-83.906-203.773 83.906-203.773 202.060-84.477 201.489 84.477 83.335 203.773z" />
<glyph unicode="&#xe60b;" glyph-name="mobile-o" d="M511.998 74.618q-21.243 0-36.493-15.25t-15.25-37.040 15.25-37.040 36.493-15.25 36.493 15.25 15.25 37.040-15.25 37.040-36.493 15.25zM769.635 896h-516.359q-31.593 0-55.015-22.875t-23.422-55.557v-867.136q0-32.682 23.422-55.557t55.015-22.875h516.359q32.682 0 56.104 22.875t23.422 55.557v867.136q0 32.682-23.422 55.557t-56.104 22.875zM253.272 843.71h516.359q10.893 0 18.518-7.625t7.625-18.518v-649.263h-568.649v649.263q0 10.893 7.625 18.518t18.518 7.625zM769.635-75.715h-516.359q-10.893 0-18.518 7.625t-7.625 18.518v161.226h568.649v-161.226q0-10.893-7.625-18.518t-18.518-7.625z" />
<glyph unicode="&#xe60c;" glyph-name="lock-two-o" horiz-adv-x="1056" d="M736.262 355.356l-275.693-270.918-96.671 94.284q-7.161 7.161-16.112 7.161t-15.515-6.565-6.565-15.515 5.967-16.112l112.187-109.8q7.161-5.967 16.112-5.967t16.112 5.967l292.401 286.434q5.967 5.967 5.967 14.918t-6.565 15.515-16.112 6.565-15.515-5.967zM879.479 506.928h-51.32v134.862q-14.322 107.412-97.865 180.215-84.737 73.995-198.117 73.995-124.121 0-211.245-85.333t-87.123-207.067v-96.671h-57.287q-29.837 0-50.723-20.289t-20.885-48.933v-496.485q0-28.644 20.885-48.933t50.723-20.289h702.956q29.837 0 50.723 20.289t20.885 48.933v496.485q0 28.644-20.885 48.933t-50.723 20.289zM909.316-58.778q0-10.741-7.757-19.095t-19.693-9.548h-705.343q-11.934 0-20.885 8.355t-8.951 20.289v496.485q0 11.934 8.951 20.289t20.885 8.355h482.163q53.706 0 95.478 27.45 7.161 4.774 8.951 13.128t-2.984 14.918-13.128 8.355-15.515-2.984q-32.223-20.289-73.995-20.289h-381.911v96.671q0 103.832 75.189 177.828t181.407 73.995q97.865 0 170.667-63.254 71.609-62.061 83.543-155.151v-149.184q0-2.387 1.194-4.774v-2.387q4.774-14.322 20.289-14.322h71.609q13.128 0 21.483-8.355t8.355-20.289v-496.485z" />
<glyph unicode="&#xe60d;" glyph-name="cake" d="M376.163 895.385h-272.903q-43.025 0-73.143-29.503t-30.118-72.528v-272.903q0-41.796 30.118-71.914t73.143-30.118h272.903q41.796 0 71.914 30.118t30.118 71.914v272.903q0 43.025-30.118 72.528t-71.914 29.503zM409.354 520.451q0-13.522-9.834-23.971t-23.357-10.449h-272.903q-14.752 0-24.586 10.449t-9.834 23.971v272.903q0 14.752 9.834 24.586t24.586 9.834h272.903q13.522 0 23.357-9.834t9.834-24.586v-272.903zM921.969 895.385h-272.903q-43.025 0-73.143-29.503t-30.118-72.528v-272.903q0-41.796 30.118-71.914t73.143-30.118h272.903q41.796 0 71.914 30.118t30.118 71.914v272.903q0 43.025-30.118 72.528t-71.914 29.503zM955.16 520.451q0-13.522-9.834-23.971t-23.357-10.449h-272.903q-14.752 0-24.586 10.449t-9.834 23.971v272.903q0 14.752 9.834 24.586t24.586 9.834h272.903q13.522 0 23.357-9.834t9.834-24.586v-272.903zM376.163 349.58h-272.903q-43.025 0-73.143-30.118t-30.118-71.914v-272.903q0-43.025 30.118-72.528t73.143-29.503h272.903q41.796 0 71.914 29.503t30.118 72.528v272.903q0 41.796-30.118 71.914t-71.914 30.118zM409.354-25.354q0-14.752-9.834-24.586t-23.357-9.834h-272.903q-14.752 0-24.586 9.834t-9.834 24.586v272.903q0 13.522 9.834 23.971t24.586 10.449h272.903q13.522 0 23.357-10.449t9.834-23.971v-272.903zM921.969 349.58h-272.903q-43.025 0-73.143-30.118t-30.118-71.914v-272.903q0-43.025 30.118-72.528t73.143-29.503h272.903q41.796 0 71.914 29.503t30.118 72.528v272.903q0 41.796-30.118 71.914t-71.914 30.118zM955.16-25.354q0-14.752-9.834-24.586t-23.357-9.834h-272.903q-14.752 0-24.586 9.834t-9.834 24.586v272.903q0 13.522 9.834 23.971t24.586 10.449h272.903q13.522 0 23.357-10.449t9.834-23.971v-272.903z" />
<glyph unicode="&#xe60e;" glyph-name="angle-right3" d="M697.725 387.011l-467.827 432.69q-13.051 13.051-13.051 31.624t13.051 31.624 31.624 13.051 30.62-13.051l501.96-467.827q13.051-13.051 13.051-31.624t-13.051-30.62l-5.020-6.024-496.941-461.803q-12.047-13.051-30.62-13.051t-31.624 13.051-13.051 31.122 13.051 31.122z" />
<glyph unicode="&#xe60f;" glyph-name="home2-o" d="M1018.156 437.644q-5.842-7.436-15.402-8.498t-16.996 4.249l-57.361 44.614v-548.116q0-10.622-6.373-17.527t-15.934-6.905h-293.178q-9.56 0-15.934 7.436-1.062 1.062-5.311 4.78t-6.373 6.373-2.124 5.842v260.249h-138.091v-260.249q0-10.622-6.905-17.527t-16.465-6.905h-299.552q-9.56 0-15.934 6.905t-6.373 17.527v551.303l-61.61-47.801q-6.373-4.249-13.809-4.249-11.685 0-18.058 8.498t-5.311 18.058 8.498 15.934l491.817 379.22q13.809 11.685 27.618 0l485.444-379.22q7.436-6.373 8.498-16.465t-4.78-17.527zM515.185 801.992l-370.722-285.743 1.062-2.124v-560.863h252.813v261.311q0 9.56 6.905 16.465t16.465 6.905h184.83q9.56 0 15.934-6.905t6.373-16.465v-261.311h253.876v550.241q0 5.311 2.124 9.56z" />
<glyph unicode="&#xe612;" glyph-name="users2-o" horiz-adv-x="1036" d="M178.994-37.006q-12 0-20 8t-8 20v75.001q0 112.002 63.001 204.003t168.003 134.002l16 7-13 10q-40.001 31-61.501 75.001t-21.5 94.001q0 89.001 63.501 152.002t153.002 63.001 152.502-63.001 63.001-152.002q0-50.001-21.5-94.001t-61.501-75.001l-13-10 16-7q105.002-42.001 168.003-134.002t63.001-204.003v-75.001q0-12-8-20t-20-8h-678.010zM517.999 375.001q-129.002 0-220.003-90.501t-91.001-218.503v-48.001h622.009v48.001q0 128.002-91.001 218.503t-220.003 90.501zM517.999 750.006q-66.001 0-113.502-47.001t-47.501-113.002 47.501-113.002 113.502-47.001 113.502 47.001 47.501 113.002-47.501 113.002-113.502 47.001zM27.992 74.996q-12 0-20 8.5t-8 19.5v58.001q0 82.001 42.001 151.002t115.002 106.002l11 6-8 9q-47.001 51.001-47.001 120.002 0 70.001 49.501 121.502t120.502 55.501q-22-30-34.001-64.001-36.001-12-58.001-43.501t-22-69.501q0-36.001 19.5-66.501t52.501-45.501q20-7 20-25 0-20-21-26l-6-2q-79.001-20-128.502-83.001t-49.501-144.002v-30h35.001q-5-28-5-56.001h-58.001zM950.005 74.996q-1 28-6 56.001h36.001v30q0 81.001-50.001 144.002t-128.002 83.001l-8 2q-19 6-19 26 0 18 19 25 33 15 53.001 45.501t20 66.501q0 38.001-22.5 69.501t-59.501 44.501q-10 33-32 63.001 70.001-4 120.002-55.501t50.001-121.502q0-69.001-47.001-120.002l-9-9 12-6q72.001-37.001 114.502-106.002t42.501-151.002v-58.001q0-11-8.5-19.5t-19.5-8.5h-58.001z" />
<glyph unicode="&#xe613;" glyph-name="user-info-o" d="M773.856 600.081q0 122.412-84.091 209.163t-203.31 86.753-203.841-86.753-84.623-209.163q0-83.026 40.98-152.215t108.041-107.509q-131.99-48.964-215.019-168.714t-83.026-267.708q0-13.837 9.047-22.886t21.821-9.047 22.353 9.047 9.581 22.886q0 108.572 51.626 200.116t141.039 145.296 194.794 53.755q3.194 0 7.45 1.065 111.766 7.45 189.47 93.138t77.704 202.776zM486.458 366.968q-93.672 0-159.667 68.124t-65.995 164.457 65.995 164.457 159.667 68.124 159.667-68.124 65.995-164.457-65.995-164.457-159.667-68.124zM546.066 199.317q0-13.306 9.047-22.886t22.886-9.581h366.168q12.774 0 21.821 9.581t9.047 22.886-9.047 22.886-21.821 9.581h-366.168q-13.837 0-22.886-9.581t-9.047-22.886zM944.169 99.792h-366.168q-13.837 0-22.886-9.581t-9.047-22.886 9.047-22.886 22.886-9.581h366.168q12.774 0 21.821 9.581t9.047 22.886-9.047 22.886-21.821 9.581zM944.169-48.166h-366.168q-13.837 0-22.886-9.581t-9.047-22.886 9.047-22.353 22.886-9.047h366.168q12.774 0 21.821 9.047t9.047 22.353-9.047 22.886-21.821 9.581z" />
<glyph unicode="&#xe614;" glyph-name="comment-o2" horiz-adv-x="1028" d="M259.694-83.126l2.155 229.522q-115.3 24.784-188.575 116.377t-73.275 210.126v44.18q0 137.929 98.059 235.988t237.065 98.059h357.753q139.006 0 237.065-98.059t98.059-235.988v-44.18q0-137.929-98.059-236.526t-237.065-98.598h-171.334zM335.123 806.946q-120.688 0-205.277-85.128t-84.589-204.738v-44.18q0-106.679 68.426-187.497t174.027-98.059l18.319-3.233 1.078-19.396-1.078-149.782 199.35 168.101h187.497q119.61 0 204.738 85.128t85.128 204.738v44.18q0 119.61-85.128 204.738t-204.738 85.128h-357.753zM329.736 483.136q0 13.47 9.159 23.168t22.090 9.698q14.008 0 22.629-9.698t8.621-22.629q0-15.086-8.621-23.707t-22.629-8.621q-14.008 1.078-22.629 9.698t-8.621 22.090zM360.985 428.719h-1.078q-22.629 1.078-37.176 16.164t-14.547 38.792q0 22.629 15.625 38.254t37.176 15.625q22.629 0 38.254-15.625t15.625-38.792-15.086-38.792-38.792-15.625zM360.985 493.373q-8.621 0-8.621-9.698t8.621-9.698q9.698 0 9.698 9.698t-9.698 9.698zM497.837 483.136q0 13.47 8.621 23.168t21.551 9.698q14.008 0 23.168-9.698t9.159-22.629q0-15.086-9.159-23.707t-23.168-8.621q-14.008 1.078-22.090 9.698t-8.082 22.090zM528.009 428.719h-1.078q-22.629 1.078-37.176 16.164t-14.547 38.792q0 22.629 15.625 38.254t37.176 15.625q22.629 0 38.254-15.625t15.625-38.792-15.086-38.792-38.792-15.625zM528.009 493.373q-8.621 0-8.621-9.698t9.698-9.698q8.621 0 8.621 9.698t-9.698 9.698zM664.861 483.136q0 13.47 8.621 23.168t21.551 9.698q14.008 0 23.168-9.698t9.159-22.629q0-15.086-9.159-23.707t-23.168-8.621q-14.008 1.078-22.090 9.698t-8.082 22.090zM695.033 428.719q-23.707 1.078-38.254 16.164t-14.547 38.792q0 22.629 15.625 38.254t37.176 15.625q23.707 0 39.331-15.625t15.625-38.792-15.625-38.792-39.331-15.625zM695.033 493.373q-7.543 0-7.543-9.698t8.621-9.698 8.621 9.698-9.698 9.698z" />
<glyph unicode="&#xe615;" glyph-name="unlock-alt-o" d="M852.671 406.721h-635.947v171.317q0 109.016 90.197 189.488t203.116 80.464q109.016 0 188.84-90.197t79.816-203.116q0-10.381 7.79-18.171t17.523-7.79 17.523 7.79 7.79 18.171q0 85.655-42.179 164.823t-116.158 127.834-159.633 48.666q-86.958 0-165.479-42.179t-127.186-116.158-48.666-159.633v-171.317q-40.236 0-68.788-28.552t-28.552-67.484v-342.634q0-40.236 28.552-68.14t68.788-27.904h683.965q40.236 0 68.788 27.904t28.552 68.14v340.035q0 41.532-29.199 70.083t-69.435 28.552zM900.696-33.245q0-19.466-13.628-33.742t-34.39-14.276h-683.965q-20.762 0-35.046 14.276t-14.276 33.742v341.331q0 20.762 14.276 35.046t35.046 14.276h683.965q20.762 0 34.39-14.276t13.628-35.046v-341.331zM511.34 260.068q-19.466 0-33.742-14.276t-14.276-35.046q0-27.256 24.657-41.532v-129.785q0-10.381 7.142-16.875t17.523-6.486 18.171 6.486 7.79 16.875v129.785q24.657 14.276 24.657 41.532-2.599 20.762-17.523 35.046t-34.39 14.276z" />
<glyph unicode="&#xe617;" glyph-name="row-list" d="M346.665 334.939h-197.334q-55.464 0-93.864-38.935t-38.4-93.335v-198.399q0-54.4 38.4-93.335t93.864-38.935h197.334q54.4 0 93.335 38.935t38.935 93.335v198.399q0 54.4-38.935 93.335t-93.335 38.935zM412.801 4.27q0-26.664-19.2-46.4t-46.935-19.736h-197.334q-27.736 0-46.935 19.736t-19.2 46.4v198.399q0 26.664 19.2 46.4t46.935 19.736h197.334q27.736 0 46.935-19.736t19.2-46.4v-198.399zM346.665 895.999h-197.334q-55.464 0-93.864-38.935t-38.4-93.335v-198.399q0-54.4 38.4-93.335t93.864-38.935h197.334q54.4 0 93.335 38.935t38.935 93.335v198.399q0 54.4-38.935 93.335t-93.335 38.935zM412.801 565.337q0-26.664-19.2-46.4t-46.935-19.736h-197.334q-27.736 0-46.935 19.736t-19.2 46.4v198.399q0 26.664 19.2 46.4t46.935 19.736h197.334q27.736 0 46.935-19.736t19.2-46.4v-198.399zM578.135 763.736h395.733q13.864 0 23.464 9.6t9.6 23.464-9.6 23.464-23.464 9.6h-395.733q-13.864 0-23.464-9.6t-9.6-23.464 9.6-23.464 23.464-9.6zM973.861 565.337h-395.733q-13.864 0-23.464-9.6t-9.6-23.464 9.6-23.464 23.464-9.6h395.733q13.864 0 23.464 9.6t9.6 23.464-9.6 23.464-23.464 9.6zM973.861 268.803h-395.733q-13.864 0-23.464-9.6t-9.6-23.464 9.6-23.464 23.464-9.6h395.733q13.864 0 23.464 9.6t9.6 23.464-9.6 23.464-23.464 9.6zM973.861 4.27h-395.733q-13.864 0-23.464-9.6t-9.6-23.464 9.6-23.464 23.464-9.6h395.733q13.864 0 23.464 9.6t9.6 23.464-9.6 23.464-23.464 9.6z" />
<glyph unicode="&#xe619;" glyph-name="edit2" d="M803.429-128h-659.429q-45.714 0-77.714 32t-32 77.714v733.714q0 44.571 32 77.143t77.714 32.571h513.143q16 0 26.286-10.857t10.286-25.714-10.286-25.714-26.286-10.857h-513.143q-14.857 0-25.714-10.857t-10.857-25.714v-733.714q0-14.857 10.857-25.714t25.714-10.857h660.571q14.857 0 25.714 10.857t10.857 25.714v586.286q0 16 10.286 26.286t25.714 10.286 26.286-10.286 10.857-26.286v-586.286q0-45.714-32.571-77.714t-78.286-32zM588.571 458.286q-14.857 0-25.714 10.857t-10.857 25.714 10.286 26.286l364.571 364.571q11.429 10.286 26.286 10.286t25.714-10.857 10.857-25.714-11.429-26.286l-363.429-363.429q-11.429-11.429-26.286-11.429zM437.714 458.286h-220.571q-14.857 0-25.714 10.857t-10.857 25.714 10.857 25.714 25.714 10.857h220.571q14.857 0 25.714-10.857t10.857-25.714-10.857-25.714-25.714-10.857zM657.143 238.857h-440q-14.857 0-25.714 10.286t-10.857 25.714 10.857 26.286 25.714 10.857h440q14.857 0 25.714-10.857t10.857-26.286-10.286-25.714-26.286-10.286z" />
<glyph unicode="&#xe61d;" glyph-name="certification-o" horiz-adv-x="1039" d="M873.291 10.893h-707.582q-68.115 0-116.914 47.782t-48.799 114.88v420.889q0 67.098 48.799 114.88t116.914 47.782h707.582q68.115 0 116.914-47.782t48.799-114.88v-420.889q0-67.098-48.799-114.88t-116.914-47.782zM994.271 594.445q0 49.815-35.582 84.381t-85.398 34.566h-707.582q-49.815 0-85.398-34.566t-35.582-84.381v-420.889q0-49.815 35.582-84.381t85.398-34.566h707.582q49.815 0 85.398 34.566t35.582 84.381v420.889zM463.585 524.296h-281.61q-9.15 0-15.25 6.1t-6.1 15.25 6.1 15.25 15.25 6.1h281.61q9.15 0 15.758-6.1t6.608-15.25-6.608-15.25-15.758-6.1zM463.585 366.717h-281.61q-9.15 0-15.25 6.608t-6.1 15.25 6.1 15.25 15.25 6.608h281.61q9.15 0 15.758-6.608t6.608-15.25-6.608-15.25-15.758-6.608zM463.585 210.154h-281.61q-9.15 0-15.25 6.1t-6.1 15.25 6.1 15.25 15.25 6.1h281.61q9.15 0 15.758-6.1t6.608-15.25-6.608-15.25-15.758-6.1zM911.923 193.888q0-9.15-6.608-15.758t-15.758-6.608-15.758 6.608-6.608 15.758q0 60.998-44.732 104.714t-107.256 43.716-106.747-43.716-44.224-104.714q0-9.15-6.608-15.758t-15.758-6.608-15.758 6.608-6.608 15.758q0 63.032 38.632 113.355t98.614 69.64q-32.533 16.266-52.865 46.765t-20.333 68.115q0 53.882 38.632 91.498t93.023 37.616 93.023-38.124 38.632-90.989q0-37.616-19.825-68.115t-53.374-46.765q60.998-19.316 99.123-69.64t39.141-113.355zM803.143 491.764q0 35.582-25.924 60.49t-62.015 24.908-61.507-24.908-25.416-60.49 25.416-60.998 61.507-25.416 62.015 25.416 25.924 60.998z" />
<glyph unicode="&#xe621;" glyph-name="points" d="M512.003-56.918q-119.77 0-221.775 25.665t-161.893 70.414-59.888 97.398q-34.222 9.214-67.126 19.74-1.319-9.214-1.319-19.74 0-71.076 68.439-132.277t186.239-96.742 257.316-35.535 257.316 35.535 186.239 96.742 68.439 132.277q0 13.164-2.632 25.009-32.904-11.845-65.807-21.059v-3.95q0-52.649-59.225-97.398t-161.893-70.414-222.437-25.665zM512.003 190.522q-119.77 0-221.775 25.665t-161.893 70.414-59.888 97.398q-38.167 9.214-67.126 19.74-1.319-9.214-1.319-19.74 0-72.389 68.439-132.933t186.239-96.079 257.316-35.535 257.316 35.535 186.239 96.079 68.439 132.933q0 13.164-2.632 25.009-30.272-10.532-65.807-21.059v-3.95q0-52.649-59.225-97.398t-161.893-70.414-222.437-25.665zM68.448 631.44q0 52.649 59.225 97.398t161.893 70.414 222.437 25.665 222.437-25.665 161.893-70.414 59.225-97.398-59.225-97.398-161.893-71.076-222.437-26.322-222.437 26.322-161.893 71.076-59.225 97.398zM0.009 631.44q0-72.389 68.439-133.59t186.239-96.079 257.316-34.879 257.316 34.879 186.239 96.079 68.439 132.933-68.439 132.933-186.239 96.742-257.316 35.535-257.316-35.535-186.239-96.742-68.439-132.277z" />
<glyph unicode="&#xe626;" glyph-name="volume-o-off" d="M484.687 818.123q-22.084 0-43.006-18.597l-244.086-206.892h-108.095q-37.194 0-63.346-26.152t-26.152-63.346v-238.275q0-37.194 26.152-63.346t63.346-26.152h108.095l244.086-206.892q20.922-18.597 43.006-18.597 25.571 0 40.681 22.084 10.461 15.11 10.461 39.519v743.882q0 30.22-15.11 46.493t-36.032 16.272zM59.279 264.861v238.275q0 11.623 8.717 20.341t21.503 8.717h89.498v-297.553h-89.498q-12.785 0-21.503 8.717t-8.717 21.503zM476.55 17.287l-238.275 202.243v328.935l238.275 202.243v-733.421zM729.354 231.735q7.555-7.555 19.178-7.555t19.759 8.136l104.608 103.446 104.608-103.446q8.136-8.136 19.178-8.136t19.178 7.555 8.136 19.178-8.136 19.759l-104.608 104.608 104.608 104.608q8.136 8.136 8.136 19.178t-8.136 19.178-19.178 8.136-19.178-8.136l-104.608-104.608-104.608 104.608q-8.136 8.136-19.759 8.136t-19.178-8.136-7.555-19.178 8.136-19.178l103.446-104.608-103.446-104.608q-8.136-8.136-8.136-19.759t7.555-19.178z" />
<glyph unicode="&#xe627;" glyph-name="handshake" d="M450.857 15.558q-4.253 5.316-17.545 23.394t-20.735 27.646q-43.598-17.013-59.547-6.912t-21.267 59.015q-23.394-6.381-40.406-6.912t-28.179 15.419-15.419 53.166q-2.126-1.063-9.57-3.189t-10.634-2.659-9.57-0.533q-36.154 9.57-43.598 21.267-6.381 9.57-6.381 25.52t5.316 22.33q21.267 21.267 26.053 40.939t-3.189 37.217-28.179 37.749q-3.189 3.189-4.253 11.164t-0.533 15.419-0.533 14.886q2.126 1.063 5.848 2.126t4.785 2.126q43.598-53.166 48.914-58.484 17.013-18.075 35.090-19.141 45.724-3.189 46.787-46.787 0-15.949 6.912-21.798t22.861-10.101q10.634-3.189 22.33-12.76t15.949-21.267q11.697-26.583 40.406-32.964 3.189-1.063 7.444-2.659t7.975-5.316 6.381-5.848 6.912-7.444l7.444-6.381q5.316-5.316 14.886-17.013t14.886-17.013q14.886-12.76 39.343-28.709 23.394-14.886 32.964-15.949 6.381 0 14.356 4.785t12.225 10.101q2.126 3.189-1.596 11.697t-7.975 12.76q-10.634 9.57-33.495 26.583t-32.432 25.52q-3.189 2.126-4.785 5.848t-2.659 9.57-2.126 7.975q2.126 0 7.975 0.533t10.101 0 7.444-2.659q42.531-27.646 114.839-79.751 34.027-24.457 52.103 0 20.204 28.709-14.886 53.166-80.815 57.421-118.031 86.13-3.189 3.189-5.848 7.975t-4.785 11.697-4.253 9.038q3.189 0 10.101-0.533t11.697-1.596 7.975-3.189q23.394-14.886 136.107-94.638 0-1.063 5.848-5.316t9.038-6.381q29.773-18.075 46.787 4.253 20.204 26.583-9.57 47.85-13.823 10.634-159.501 116.968-15.949 11.697-17.013 12.76 0 1.063-4.253 19.141 15.949 4.253 17.013 3.189 8.507-2.126 24.457-13.823 109.524-77.623 159.501-113.777 37.217-26.583 60.61 0 26.583 29.773-9.57 62.737-163.755 143.551-265.835 231.808-26.583 22.33-57.951 12.76t-40.939-44.661q-20.204-68.055-79.751-82.941-20.204-5.316-51.040 6.381-5.316 2.126-10.101 11.697t-3.722 15.949q5.316 35.090 21.267 96.764 0 3.189 19.141 59.547h-89.32q3.189 23.394 13.823 32.964t31.901 7.444q36.154-3.189 62.737 0 65.926 8.507 93.575 18.075 69.118 24.457 153.122 3.189 15.949-4.253 50.509-11.164t52.636-11.164q18.075-5.316 24.457-18.075 46.787-94.638 120.158-246.694 7.444-17.013 3.189-23.394-8.507-12.76-10.101-27.116t1.063-24.989 9.038-26.583q10.634-24.457-2.659-48.914t-39.876-31.901q-24.457-7.444-30.838-31.901-11.697-44.661-74.434-47.85-15.949-41.469-36.154-51.573t-62.737 2.659q-4.253 1.063-25.52-7.444-5.316-3.189-17.545-10.101t-21.267-10.634-15.419-1.596q-23.394 7.444-38.813-0.533t-33.495-28.179h-24.457zM175.453 752.454q55.295-29.773 59.547-31.901 25.52-12.76 13.823-38.28-34.027-69.118-140.362-291.355-12.76-27.646-40.406-12.76-5.316 2.126-68.055 37.217v19.141q77.623 147.804 84.004 160.564l78.689 157.374h12.76zM857.054 752.454q29.773-46.787 30.838-48.914 14.886-29.773 58.484-118.031t68.055-136.107q9.57-20.204 5.316-31.901t-24.457-21.267-27.646-13.293-19.141-5.316-14.356-0.533-10.634 9.57-11.697 16.482-14.356 28.179q-110.587 225.429-119.094 243.505-17.013 34.027 15.949 48.914 3.189 2.126 49.977 28.709h12.76z" />
<glyph unicode="&#xe629;" glyph-name="comment-o3" d="M919.81 895.999h-815.62q-35.795 0-61.363-25.568t-25.568-61.363v-668.604q0-37.074 25.568-62.642t61.363-25.568h175.141v-144.459q0-12.784 10.866-23.011t23.65-10.227q15.341-2.557 30.682 12.784l164.914 164.914h410.367q35.795 0 61.363 25.568t25.568 62.642v668.604q0 35.795-25.568 61.363t-61.363 25.568zM947.935 168.588q0-24.29-16.619-40.909t-40.909-16.619h-403.975q-1.278-1.278-10.227-8.949l-139.346-139.346v118.891q0 11.506-8.31 20.454t-19.815 8.949h-175.141q-24.29 0-40.909 16.619t-16.619 40.909v611.076q0 24.29 16.619 41.548t40.909 17.258h756.814q24.29 0 40.909-17.258t16.619-41.548v-611.076zM687.141 488.828q0 23.65 16.619 40.909t40.909 17.258 41.548-17.258 17.258-40.909-17.258-40.909-41.548-17.258-40.909 17.258-16.619 40.909zM453.194 488.828q0 23.65 17.258 40.909t41.548 17.258 41.548-17.258 17.258-40.909-17.258-40.909-41.548-17.258-41.548 17.258-17.258 40.909zM220.524 488.828q0 23.65 17.258 40.909t41.548 17.258 40.909-17.258 16.619-40.909-16.619-40.909-40.909-17.258-41.548 17.258-17.258 40.909z" />
<glyph unicode="&#xe63e;" glyph-name="user-o" d="M1007.191 11.648q-36.203 100.843-111.192 179.067t-173.249 119.592q54.3 46.543 84.685 111.192t30.385 137.046q0 135.76-95.678 230.784t-230.141 95.025-230.141-95.025-95.678-230.784q0-72.406 30.385-137.046t84.685-111.192q-98.26-41.368-173.249-119.592t-111.192-179.067q-16.81-46.543 11.636-87.921 28.446-40.082 77.571-40.082 11.636 0 19.393 7.757t7.757 18.097-7.757 18.097-19.393 7.757q-21.975 0-33.611 18.097-14.218 19.393-6.461 41.368 36.203 98.26 111.835 172.606t175.188 106.661q74.989-41.368 159.031-41.368t159.031 41.368q99.556-32.325 175.188-106.661t111.835-172.606q7.757-21.975-6.461-41.368-11.636-18.097-33.611-18.097-11.636 0-19.393-7.757t-7.757-18.097 7.757-18.097 19.393-7.757q49.135 0 77.571 40.082 28.446 41.368 11.636 87.921zM239.205 559.188q0 113.131 80.164 193.285t192.642 80.164 192.642-80.164 80.164-193.285-80.164-193.285-192.642-80.164-192.642 80.164-80.164 193.285z" />
<glyph unicode="&#xe63f;" glyph-name="edit3" d="M910.223 469.334q-12.19 0-20.317-8.127t-8.127-20.317v-455.111q0-23.026-16.931-39.958t-39.958-16.931h-682.667q-23.026 0-39.958 16.931t-16.931 39.958v796.445q0 23.026 16.931 39.958t39.958 16.931h512q12.19 0 20.317 8.127t8.127 20.317-8.127 20.317-20.317 8.127h-512q-47.407 0-80.593-33.185t-33.185-80.593v-796.445q0-47.407 33.185-80.593t80.593-33.185h682.667q47.407 0 80.593 33.185t33.185 80.593v455.111q0 12.19-8.127 20.317t-20.317 8.127zM987.43 887.873q-8.127 8.127-20.317 8.127t-20.317-8.127l-711.111-711.111q-8.127-8.127-8.127-20.317t8.127-20.317 20.317-8.127 20.317 8.127l711.111 711.111q8.127 8.127 8.127 20.317t-8.127 20.317z" />
<glyph unicode="&#xe644;" glyph-name="verify-code" d="M512.001-128l-8.837 2.21q-125.929 46.395-224.794 134.766t-158.516 208.777-70.697 251.857 28.721 259.59l5.523 17.674h18.778q219.823 1.104 394.356 136.975l15.465 12.151 15.465-12.151q173.428-135.871 394.356-136.975h18.778l5.523-17.674q39.767-128.138 28.721-259.59t-70.697-251.857-158.516-208.777-224.794-134.766zM120.959 696.060q-24.302-97.208-22.645-191.103t33.691-183.37 83.953-165.143 128.138-135.318 167.906-94.999q91.685 35.348 167.906 94.999t128.138 135.318 83.953 165.143 33.691 183.37-22.645 191.103q-109.36 3.314-209.881 38.662-98.313 35.348-181.161 96.104-83.953-60.755-181.161-94.999-101.627-36.454-209.881-39.767zM465.053 194.555q-10.494 0-18.227 7.733l-145.812 145.812q-6.628 7.733-6.628 18.227t7.18 17.674 17.674 7.18 18.227-6.628l127.034-128.138 272.846 272.846q7.733 7.733 18.227 7.733t18.227-7.733 7.733-18.227-7.733-18.227l-290.52-290.52q-7.733-7.733-18.227-7.733z" />
<glyph unicode="&#xe648;" glyph-name="share22" d="M474.031 687.748h-416.503v-759.371h815.748v360.126h56.377v-416.503h-929.653v872.126h474.031v-56.377zM606.346 843.074l19.559 52.926 398.095-151.874-32.217-48.324zM975.676 762.534l48.324-18.408-226.66-341.718-47.173 32.217 219.757 330.21zM991.783 695.802v0zM1024 744.126v0zM379.684 57.241l-56.377 4.602q0 9.204 2.301 25.888t12.080 65.006 23.010 95.497 39.12 109.303 58.678 115.631 82.841 107.002 109.303 89.744 140.944 57.528 176.035 16.682l-2.301-56.377q-85.142 3.452-158.777-15.532t-127.136-51.775-98.948-80.54-75.361-96.647-53.501-105.276-36.243-100.099-21.284-88.594-10.93-62.705-3.452-29.34v0z" />
<glyph unicode="&#xe64b;" glyph-name="clock2-o" d="M512 557.001h-45.001v-256h256v37.998h-210.999v218.002zM512 896q-138.002 0-256-69.001t-186.999-186.999-69.001-256 69.001-256 186.999-186.999 256-69.001 256 69.001 186.999 186.999 69.001 256-69.001 256-186.999 186.999-256 69.001zM512-82.999q-96 0-183.003 37.001t-149.001 100-98.501 149.001-36.503 181.001q0 96 37.001 183.003t100 149.001 149.001 98.501 181.001 36.503q93.998 0 180.503-37.001t149.499-100 100-149.499 37.001-180.503q0-95.003-36.503-181.001t-98.501-149.001-149.001-100-183.003-37.001z" />
<glyph unicode="&#xe64c;" glyph-name="withdraw-o" d="M775.345 662.041h214.746q6.781 0 12.433 6.216t5.651 15.823-5.651 15.823-12.433 6.216h-214.746q-7.912 0-12.998-6.216t-5.086-15.823 5.086-15.823 12.998-6.216zM690.576 359.136q11.302 0 19.214 6.781t7.912 16.389-7.912 16.389-19.214 6.781h-159.364v24.865l152.583 146.932q7.912 7.912 7.347 17.519t-9.607 15.823-20.344 5.651-19.214-8.477l-139.020-134.499-129.978 134.499q-6.781 7.912-18.084 8.477t-20.344-5.086-10.172-15.258 5.651-17.519l145.801-149.192v-23.735h-142.411q-11.302 0-19.214-6.781t-7.912-16.389 7.912-16.389 19.214-6.781h142.411v-38.428h-142.411q-11.302 0-19.214-6.781t-7.912-16.389 7.912-16.389 19.214-6.781h142.411v-120.936q0-10.172 7.912-16.954t19.779-6.781 19.779 6.781 7.912 16.954v120.936h159.364q11.302 0 19.214 6.781t7.912 16.389-7.912 16.389-19.214 6.781h-159.364v38.428h159.364zM1008.175 509.458q-2.26 10.172-10.737 14.693t-17.519 2.26-14.128-10.737-2.826-17.519q13.563-55.382 13.563-114.155 0-126.587-62.163-233.395t-168.971-168.971-233.395-62.163-233.395 62.163-168.971 168.971-62.163 233.395 62.163 233.395 168.971 168.971 233.395 62.163q102.852 0 195.532-42.949 9.042-3.391 18.084 0t12.998 11.868 0.565 18.084-11.302 12.998q-102.852 47.47-215.876 47.47-102.852 0-196.097-38.428t-166.146-111.329-111.329-166.146-38.428-196.097 38.428-196.097 111.329-166.146 166.146-111.329 196.097-38.428 196.097 38.428 166.146 111.329 111.329 166.146 38.428 196.097q0 64.424-15.823 125.457z" />
<glyph unicode="&#xe653;" glyph-name="select-o" d="M808 896h-592q-89.335 0-152.663-63.337t-63.337-152.663v-592q0-89.335 63.337-152.663t152.663-63.337h592q89.335 0 152.663 63.337t63.337 152.663v592q0 89.335-63.337 152.663t-152.663 63.337zM969.335 88q0-66.669-47.337-113.998t-113.998-47.337h-592q-66.669 0-113.998 47.337t-47.337 113.998v592q0 66.669 47.337 113.998t113.998 47.337h592q66.669 0 113.998-47.337t47.337-113.998v-592z" />
<glyph unicode="&#xe655;" glyph-name="weixin-share" horiz-adv-x="1345" d="M587.106 470.088q36.248 31.213 44.303 20.138-8.055 11.076-44.303-20.138zM1082.492 665.424q-4.028 114.785-55.379 181.239-32.22 40.275-71.992 44.806t-80.047-27.689q-61.42-49.337-115.792-152.039-19.131-34.234 14.096-56.385 29.2-19.131 54.372 17.117 4.028 6.041 16.614 26.179t19.131 29.703 19.634 23.158 27.186 22.655q-12.083-125.86-81.054-244.169t-153.55-169.66q-4.028-3.021-17.117-11.076 3.021 1.007 5.034 2.014-25.172-15.103-31.213-18.124l-1.007-1.007v2.014q-1.007 2.014-1.51 4.531t-0.503 5.034v3.524l-1.007 2.014v-4.028q2.014-7.048 2.014 1.007 1.007 6.041 1.007 23.158h1.007v3.021q0 2.014-1.007 8.055t-2.014 13.089q-20.138 106.73-91.626 137.44t-164.122-24.669q-61.42-37.255-62.427-100.688t57.392-103.709q42.289-29.2 110.757-29.2h52.358q9.062 2.014 13.593-5.538t3.524-23.158-9.062-33.731q-58.399-149.019-205.404-261.79-7.048-6.041-88.606-61.42 54.372-15.103 84.578 3.021 119.819 75.516 197.853 165.129t107.233 211.445q3.021 14.096 10.069 24.165 0 1.007 1.007 1.007l4.028 4.028q43.296 19.131 79.040 41.282t50.344 34.737 14.6 13.593l1.007 1.007q42.289 38.262 79.544 91.626 80.551 118.812 122.84 262.796 6.041-17.117 12.083-47.323l8.055-40.275q5.034-15.103 17.117-24.669t28.193-7.552q11.076 2.014 15.607 9.565t4.028 16.614-0.503 18.124zM554.886 312.008q-12.083-1.007-23.662-3.021t-16.614-2.517-15.607 1.007-28.696 5.538q-35.241 13.089-56.385 39.268t-20.138 58.399q0 28.193 13.089 49.337t36.248 30.206q48.33 19.131 84.578-30.206 36.248-51.351 36.248-112.771 2.014-25.172-9.062-35.241zM1483.231 788.264q-2.014-1.007-3.021-2.014l-12.083-7.048z" />
<glyph unicode="&#xe65a;" glyph-name="users-o" d="M384.491 765.004q79.503 0 135.503-56t56-135.503-56-135.503-135.503-56-135.503 56-56 135.503 56 135.503 135.503 56zM383.993 829.004q-104.994 0-180-74.998t-74.998-180.505 74.998-180.505 180.505-74.998 180.505 74.998 74.998 180.505-74.998 180.505-181.002 74.998zM384.491 317.997q64.497 0 124.505-24.994 56.994-24 101.002-68t68-101.002q24.994-60 24.994-124 0-26.998-18.501-45.5t-44.505-18.501h-511.007q-26.004 0-44.505 18.501t-18.501 45.5q0 64 24.994 124 24 56.994 68 101.002t101.002 68q60 24.994 124.505 24.994zM383.993 381.997q-104 0-192-50.998t-138.998-138.998-50.998-192q0-53.002 37.5-90.501t89.504-37.5h511.007q52 0 89.504 37.5t37.5 90.501q0 104-50.998 192t-139.495 138.998-192.497 50.998zM775 424.995q55.006 34.004 87.503 91.495t32.497 124.505q0 106.004-74.998 180.505t-180 74.501q-87.006 0-156-53.002 34.004-13.002 64-34.004 42.998 23.006 92 23.006 79.006 0 135.006-56t56-135.006-56-135.006q-55.006-55.006-132-56-16.994-35.999-43.999-66.998 19.999 2.998 40.994 2.998 64 0 124-24.994 56.994-24 101.002-68.505t68-101.499q24.994-58.998 24.994-124 0-26.004-18.501-45.002t-44.505-18.998h-96v-2.998q0-32-11.999-61.002h108q52 0 89.504 37.5t37.5 90.501q0 120.994-68.505 218.501t-178.501 139.495z" />
<glyph unicode="&#xe660;" glyph-name="user-add-o" d="M989.116 0.283h-95.648v-96.774q0-13.503-9.002-22.505t-23.631-9.002-23.068 9.002-8.44 22.505v96.774h-96.774q-13.503 0-22.505 8.44t-9.002 23.068 9.002 23.631 22.505 9.002h96.774v95.648q0 14.629 8.44 23.068t23.068 8.44 23.631-8.44 9.002-23.068v-95.648h95.648q14.629 0 23.068-9.002t8.44-23.631-8.44-23.068-23.068-8.44zM636.905 319.861h-50.637q-75.393-64.141-173.292-64.141-87.771 0-173.292 64.141h-43.886q-52.888 0-90.585-37.697t-37.697-90.585v-127.156q0-52.888 37.697-90.585t90.585-37.697h441.108v-64.141h-441.108q-82.145 0-137.284 55.138t-55.138 137.284v127.156q0 77.644 54.576 135.033t131.095 57.389q-57.389 92.273-57.389 192.422 0 133.908 83.833 226.743t204.237 92.835 204.237-92.835 83.833-226.743q0-100.149-58.514-192.422 58.514-4.501 106.338-39.947t66.954-88.334h-70.892q-41.635 64.141-114.778 64.141zM419.726 831.861q-92.273 0-158.101-75.393t-65.829-180.607 65.829-180.607 157.538-75.393 158.101 75.393 66.391 180.607-66.391 180.607-157.538 75.393z" />
<glyph unicode="&#xe66c;" glyph-name="other" d="M426.061 341.815h-383.345q-17.707 0-30.21-12.503t-12.503-30.21v-384.389q0-17.707 12.503-30.21t30.21-12.503h383.345q17.707 0 30.21 12.503t12.503 30.21v384.389q0 17.707-12.503 30.21t-30.21 12.503zM401.057-59.237h-333.344v332.305h333.344v-332.305zM981.284 341.815h-384.389q-17.707 0-30.21-12.503t-12.503-30.21v-384.389q0-17.707 12.503-30.21t30.21-12.503h384.389q17.707 0 30.21 12.503t12.503 30.21v384.389q0 17.707-12.503 30.21t-30.21 12.503zM955.242-59.237h-333.344v332.305h333.344v-332.305zM426.061 896.001h-383.345q-17.707 0-30.21-12.503t-12.503-30.21v-383.345q0-17.707 12.503-30.21t30.21-12.503h383.345q17.707 0 30.21 12.503t12.503 30.21v383.345q0 17.707-12.503 30.21t-30.21 12.503zM401.057 494.948h-333.344v333.344h333.344v-333.344zM789.090 896.001q-97.398 0-166.152-68.754t-68.754-165.631 68.754-165.631 166.152-68.754 166.152 68.754 68.754 165.631-68.754 165.631-166.152 68.754zM788.575 828.291q68.754 0 117.714-48.96t48.96-117.714-48.96-117.714-117.714-48.96-117.714 48.96-48.96 117.714 48.96 117.714 117.714 48.96z" />
<glyph unicode="&#xe672;" glyph-name="share2" d="M847.803 543.607q73.225 0 124.711 51.486t51.486 124.711-51.486 124.711-124.711 51.486-124.711-51.486-51.486-124.711q0-11.441 2.288-25.171l-370.699-141.873q-51.486 54.918-128.143 54.918-72.080 0-123.566-51.486t-51.486-124.139 51.486-124.711 123.566-52.058q56.063 0 101.828 33.18l250.565-167.044q-16.018-35.468-16.018-74.369 0-72.080 51.486-123.566t124.711-51.486 124.711 51.486 51.486 124.139-51.486 124.139-124.711 51.486q-70.936 0-122.422-50.342l-242.556 162.467q28.603 43.477 28.603 96.107 0 34.324-12.585 65.216l355.826 137.296q22.883-41.189 64.072-65.788t89.242-24.599zM175.625 319.356q-46.337 0-79.517 33.18t-33.18 79.517 33.18 78.945 79.517 32.608 78.945-32.608 32.608-78.945-32.608-79.517-78.945-33.18zM688.197 159.178q46.337 0 78.945-32.608t32.608-78.945-32.608-78.945-78.945-32.608-79.517 32.608-33.18 78.945 33.18 78.945 79.517 32.608zM847.803 831.928q45.765 0 78.945-32.608t33.18-78.945-33.18-79.517-78.945-33.18-78.945 33.18-33.18 79.517 33.18 78.945 78.945 32.608z" />
<glyph unicode="&#xe688;" glyph-name="home-o" d="M1004.571 336q-19.429-19.429-46.857-19.429-11.429 0-22.857 4.571v-360q0-36.571-26.286-62.857t-62.857-26.286h-222.857q-18.286 0-31.429 13.143t-13.143 31.429v200q0 9.143-6.286 16t-15.429 6.857h-89.143q-9.143 0-15.429-6.857t-6.286-16v-200q0-18.286-13.143-31.429t-31.429-13.143h-222.857q-36.571 0-62.857 26.286t-26.286 62.857v361.143q-40-14.857-69.714 16-19.429 20.571-19.429 48t20.571 46.857l91.429 89.143v195.429q0 18.286 12.571 31.429t32 13.143h88q19.429 0 32-13.143t12.571-31.429v-22.857l186.286 181.714q20.571 19.429 47.429 19.429t46.286-19.429l435.429-445.714q19.429-19.429 19.429-47.429t-19.429-47.429zM178.286-83.429h200q9.143 0 16 6.857t6.857 16v200q0 18.286 12.571 31.429t32 13.143h132.571q18.286 0 31.429-13.143t13.143-31.429v-200q0-9.143 6.857-16t16-6.857h200q18.286 0 31.429 13.143t13.143 31.429v395.429l-369.143 378.286-387.429-377.143v-396.571q0-18.286 13.143-31.429t31.429-13.143zM244.571 694.857q0 9.143-6.286 16t-15.429 6.857h-44.571q-9.143 0-15.429-6.857t-6.286-16v-129.143l88 85.714v43.429zM972.571 398.857l-434.286 445.714q-6.857 6.857-16 6.857t-16-6.857l-454.857-443.429q-6.857-6.857-6.857-16t6.286-16 15.429-6.857 16 6.857l6.857 6.857v8h8l425.143 413.714 403.429-413.714h9.143v-9.143l6.857-6.857q6.857-6.857 16-6.857t15.429 6.857 6.286 16-6.857 14.857zM512 584q36.571 0 62.857-26.286t26.286-62.857-26.286-62.857-62.857-26.286-62.857 26.286-26.286 62.857 26.286 62.857 62.857 26.286zM512 450.286q18.286 0 31.429 13.143t13.143 31.429-13.143 31.429-31.429 13.143-31.429-13.143-13.143-31.429 13.143-31.429 31.429-13.143z" />
<glyph unicode="&#xe6a5;" glyph-name="volume-o-down" d="M880.75 239.377q-16.45 0-27.416 13.708-8.225 10.967-6.854 25.36t12.337 23.989q38.383 31.529 38.383 81.564t-38.383 81.564q-10.967 9.596-12.337 23.989t7.539 25.36 23.304 12.337 25.36-6.854q65.799-53.462 65.799-137.082t-65.799-135.711q-9.596-8.225-21.933-8.225zM627.149 895.998q-26.046 0-50.72-21.933l-287.871-244.005h-127.486q-43.866 0-74.71-30.843t-30.843-74.71v-281.017q0-43.866 30.843-74.71t74.71-30.843h127.486l287.871-244.005q24.675-21.933 50.72-21.933 30.158 0 47.979 26.046 12.337 17.821 12.337 46.608v877.323q0 35.641-17.821 54.833t-42.495 19.191zM125.43 243.489v281.017q0 13.708 10.281 23.989t25.36 10.281h105.553v-350.929h-105.553q-15.079 0-25.36 10.281t-10.281 25.36zM617.553-48.495l-281.017 238.522v387.941l281.017 238.522v-864.985z" />
<glyph unicode="&#xe6a8;" glyph-name="volume-o" d="M873.963 103.306q-15.004 0-25.006 12.503-8.752 10.002-6.877 23.131t11.878 21.88q50.012 40.010 78.144 98.774t28.132 124.405-28.132 123.78-78.144 99.399q-10.002 8.752-11.253 21.88t6.877 23.131 21.255 11.878 23.131-6.877q62.515-50.012 96.274-121.905t33.758-151.912-33.758-151.287-96.274-121.28q-8.752-7.502-20.005-7.502zM752.684 252.093q-15.004 0-25.006 12.503-7.502 10.002-6.252 23.131t11.253 21.88q35.009 28.757 35.009 74.393t-35.009 74.393q-10.002 8.752-11.253 21.88t6.877 23.131 21.255 11.253 23.131-6.252q60.015-48.762 60.015-125.031t-60.015-123.78q-8.752-7.502-20.005-7.502zM521.377 850.989q-23.756 0-46.261-20.005l-262.564-222.554h-116.278q-40.010 0-68.142-28.132t-28.132-68.142v-256.313q0-40.010 28.132-68.142t68.142-28.132h116.278l262.564-222.554q22.505-20.005 46.261-20.005 27.507 0 43.761 23.756 11.253 16.254 11.253 42.51v800.195q0 32.508-16.254 50.012t-38.759 17.504zM63.766 255.844v256.313q0 12.503 9.377 21.88t23.131 9.377h96.274v-320.078h-96.274q-13.753 0-23.131 9.377t-9.377 23.131zM512.625-10.471l-256.313 217.553v353.836l256.313 217.553v-788.943z" />
<glyph unicode="&#xe6aa;" glyph-name="thumbs-o2-down" d="M87.718 782.775q0 47.281 32.972 80.253t80.253 32.972h792.574v-623.358h-197.832q-2.488 0-3.733 0.622t-3.733 0.622h-3.733q-80.875-233.915-105.759-289.905-22.396-53.502-46.659-76.52t-62.834-30.484q-21.152-4.977-53.502 8.087t-64.7 44.17-46.036 82.741 2.488 125.045q6.221 21.152 19.908 79.631h-312.301q-43.548 0-64.078 31.106t-20.53 82.119zM823.057 329.876h113.225v510.134h-113.225v-1.244h-27.373v-503.913l-1.244-3.733q2.488-1.244 28.617-1.244zM143.708 272.641h354.605l-43.548-169.215q-14.931-68.433 21.152-117.58t64.7-52.88q17.419-1.244 43.548 11.198t41.060 46.036q16.175 37.327 114.469 308.569l-1.244 1.244v538.751h-113.225v1.244h-424.282q-23.64 0-40.437-16.797t-16.797-40.437l-55.99-452.899q0-23.64 16.175-40.437t39.815-16.797z" />
<glyph unicode="&#xe6ab;" glyph-name="thumbs-o2-up" d="M936.282-14.775q0-47.281-32.972-80.253t-80.253-32.972h-792.574v623.358h197.832q2.488 0 3.733-0.622t3.733-0.622h3.733q80.875 233.915 105.759 289.905 22.396 53.502 46.659 76.52t62.834 30.484q21.152 4.977 53.502-8.087t64.7-44.17 46.036-82.741-2.488-125.045q-6.221-21.152-19.908-79.631h312.301q43.548 0 64.078-31.106t20.53-82.119zM200.943 438.124h-113.225v-510.134h113.225v1.244h27.373v503.913l1.244 3.733q-2.488 1.244-28.617 1.244zM880.292 495.359h-354.605l43.548 169.215q14.931 68.433-21.152 117.58t-64.7 52.88q-17.419 1.244-43.548-11.198t-41.060-46.036q-16.175-37.327-114.469-308.569l1.244-1.244v-538.751h113.225v-1.244h424.282q23.64 0 40.437 16.797t16.797 40.437l55.99 452.899q0 23.64-16.175 40.437t-39.815 16.797z" />
<glyph unicode="&#xe6af;" glyph-name="angle-left3" d="M244 410q-12-11-12-26t12-26l483-475q11-11 26.5-11t27 11 11.5 26.5-12 26.5l-456 448 456 448q12 11 12 26.5t-11.5 26.5-27 11-26.5-11zM244 410q-12-11-12-26t12-26l483-475q11-11 26.5-11t27 11 11.5 26.5-12 26.5l-456 448 456 448q12 11 12 26.5t-11.5 26.5-27 11-26.5-11z" />
<glyph unicode="&#xe6df;" glyph-name="qq-solid-space" d="M697.922 492.121h-355.826l234.547-40.045-251.709-204.8h380.997l-225.394 49.198zM512.572 896q-104.116 0-199.079-40.617t-163.611-109.265-109.265-163.611-40.617-199.079 40.617-198.507 109.265-163.039 163.611-109.265 199.079-40.617 198.507 40.617 163.039 109.265 109.265 163.039 40.617 198.507-40.617 199.079-109.265 163.611-163.039 109.265-198.507 40.617zM874.118 479.535l-141.873-118.99 46.909-300.907q-6.865-6.865-9.153-8.009t-9.153-1.144l-244.845 149.882-244.845-149.882q-20.594 3.432-20.594 9.153l33.18 300.907-148.737 131.575-50.342 35.468h-14.874v2.288l14.874-2.288h291.754l36.612 67.504 93.819 197.935h19.45l102.972-197.935 37.756-67.504h253.998q3.432 0 6.865 1.144 2.288-2.288 2.288-4.577z" />
<glyph unicode="&#xe6f0;" glyph-name="loading1" d="M521.537 896q-20.078 0-34.133-14.055t-14.055-35.137v-161.631q0-20.078 14.557-33.631t34.635-13.553 34.133 14.055 14.055 34.133q1.004 84.329 0 161.631 0 20.078-14.557 34.133t-34.635 14.055zM324.769 807.654q-13.051 21.082-39.153 21.082t-39.153-22.588 1.004-45.678q33.129-59.231 78.306-138.541 10.039-16.063 28.11-21.082t34.133 4.518 21.584 27.106-3.514 33.631q-33.129 59.231-81.318 141.553zM94.871 571.732q14.055-8.031 133.522-77.302 12.047-7.027 22.086-6.024 33.129 0 41.161 32.125 9.035 30.118-20.078 47.184-49.192 28.11-134.525 77.302-17.067 10.039-34.133 6.024t-26.102-20.078-4.016-32.627 22.086-26.604zM129.004 334.807h79.31q18.071 1.004 29.114 12.047t10.039 28.11q0 16.063-11.043 26.604t-28.11 10.541h-155.608q-18.071 0-29.616-11.043t-11.545-28.11q0-16.063 11.545-26.604t28.612-11.545h77.302zM281.6 234.415q-7.027 13.051-20.58 16.565t-26.604-3.514q-49.192-28.11-139.545-80.314-16.063-10.039-16.063-26.102 0-22.086 16.063-33.631t34.133-1.506q55.216 31.122 140.549 81.318 13.051 8.031 16.063 21.584t-4.016 25.6zM373.961 133.019q-23.090 6.024-36.141-16.063-37.145-64.251-77.302-135.529-8.031-13.051-5.020-25.6t14.055-19.576q12.047-7.027 24.596-3.012t20.58 17.067q15.059 26.102 42.667 74.29t34.635 59.231q5.020 10.039 5.020 15.059 0 27.106-23.090 34.133zM521.537 87.842q-12.047 0-19.576-8.031t-7.529-22.086v-154.604q0-14.055 7.529-22.086t19.576-9.035q13.051 0 20.58 8.533t7.529 22.588q1.004 75.294 0 153.6 0 15.059-7.529 23.090t-20.58 8.031zM699.231 113.944q-5.020 10.039-14.557 12.549t-18.573-3.514q-9.035-5.020-11.545-14.055t2.51-19.075q30.118-52.204 80.314-138.541 7.027-12.047 21.082-12.047t21.082 12.047 0 24.094q-32.125 57.224-80.314 138.541zM940.173 156.109q-72.282 42.165-136.533 78.306-8.031 5.020-15.059 3.012-14.055-3.012-16.063-17.067-3.012-14.055 13.051-23.090 17.067-10.039 50.196-29.616t39.153-22.588q42.165-24.094 46.18-26.102 11.043-6.024 21.082 0t10.039 18.071-12.047 19.075zM989.365 391.026h-150.588q-21.082 0-21.082-17.067-1.004-18.071 20.078-18.071h152.596q21.082 0 21.082 17.067 1.004 18.071-22.086 18.071zM800.627 518.524q71.278 41.161 136.533 79.31 8.031 4.016 8.031 13.051 0 8.031-7.027 11.545t-15.059-0.502q-56.22-32.125-136.533-79.31-13.051-7.027-6.024-19.075 8.031-12.047 20.078-5.020zM678.149 633.975q6.024 1.004 11.043 8.031 2.008 5.020 7.529 14.055t7.529 12.047q45.176 80.314 61.239 107.42 9.035 15.059-5.020 18.071-8.031 2.008-14.055-9.035-9.035-15.059-32.627-56.22t-36.643-64.251q-7.027-12.047-8.031-15.059-2.008-5.020 0.502-9.537t8.533-5.522z" />
<glyph unicode="&#xe718;" glyph-name="map2-o" d="M512 836q126.667 0 212.667-94t86-230q0-81.333-89.333-234t-209.333-312.667q-116 145.333-207.333 304.667t-91.333 242q0 136 86 230t212.667 94zM512 896q-153.333 0-260-112t-106.667-272q0-60 37.333-148t91.333-170.667 108-156.667 92.667-119.333l37.333-45.333q14.667 17.333 39.333 47.333t88 115.333 112 161.333 88 166 39.333 150q0 160-106.667 272t-260 112zM512 700q44 0 82-36t38-74.667-37.333-70.667-82.667-32q-42.667 0-81.333 34.667t-38.667 68 38.667 72 81.333 38.667zM512 742.667q-62.667 0-112.667-48t-50-105.333q0-60 47.333-107.333t115.333-47.333 115.333 47.333 47.333 107.333q0 57.333-50 105.333t-112.667 48z" />
<glyph unicode="&#xe759;" glyph-name="cog-o" d="M959.928 510.426h-86.954q-6.865 19.45-14.874 37.756l60.639 61.783q19.45 18.306 19.45 44.621t-19.45 45.765l-90.387 90.387q-18.306 19.45-45.193 19.45t-45.193-19.45l-61.783-60.639q-18.306 8.009-36.612 14.874v86.954q0 26.315-18.878 45.193t-46.337 18.878h-128.143q-26.315 0-45.193-18.878t-18.878-45.193v-86.954q-19.45-6.865-36.612-14.874l-61.783 60.639q-18.306 19.45-45.193 19.45t-45.193-19.45l-91.531-90.387q-18.306-19.45-18.306-45.765t19.45-44.621l60.639-61.783q-9.153-18.306-16.018-37.756h-83.522q-27.459 0-45.765-18.306t-18.306-45.765v-128.143q0-26.315 18.306-45.193t45.765-18.878h83.522q6.865-18.306 16.018-36.612l-61.783-61.783q-18.306-18.306-18.306-45.193t18.306-45.193l91.531-91.531q18.306-18.306 45.193-18.306t45.193 18.306l61.783 61.783q18.306-9.153 36.612-16.018v-83.522q0-27.459 18.878-45.765t45.193-18.306h128.143q27.459 0 46.337 18.306t18.878 45.765v83.522q18.306 6.865 36.612 16.018l61.783-61.783q18.306-18.306 45.193-18.306t45.193 18.306l90.387 91.531q19.45 18.306 19.45 45.193t-19.45 45.193l-60.639 61.783q8.009 18.306 14.874 36.612h86.954q26.315 0 45.193 18.878t18.878 45.193v128.143q0 27.459-18.878 45.765t-45.193 18.306zM987.388 318.211q0-11.441-8.009-19.45t-19.45-8.009h-112.125l-9.153-24.027q-5.721-17.162-13.73-34.324l-11.441-22.883 80.089-80.089q8.009-8.009 8.009-19.45t-8.009-19.45l-91.531-90.387q-8.009-8.009-19.45-8.009t-19.45 8.009l-78.945 80.089-24.027-11.441q-16.018-8.009-33.18-13.73l-24.027-9.153v-109.837q0-11.441-8.581-19.45t-20.022-9.153l-128.143 1.144q-11.441 0-19.45 8.009t-8.009 19.45v109.837l-24.027 9.153q-17.162 5.721-34.324 13.73l-22.883 11.441-80.089-80.089q-8.009-8.009-19.45-8.009t-19.45 8.009l-90.387 90.387q-8.009 8.009-8.009 19.45t8.009 19.45l80.089 80.089-11.441 22.883q-8.009 17.162-13.73 34.324l-9.153 24.027h-109.837q-11.441 0-19.45 8.009t-8.009 19.45v128.143q0 11.441 8.009 20.022t19.45 8.581h109.837l9.153 24.027q5.721 17.162 13.73 33.18l11.441 24.027-80.089 78.945q-8.009 8.009-8.009 19.45t8.009 19.45l90.387 91.531q8.009 8.009 19.45 8.009t20.594-8.009l78.945-80.089 22.883 11.441q17.162 8.009 34.324 13.73l24.027 9.153v112.125q0 11.441 8.009 19.45t19.45 8.009h128.143q11.441 0 20.022-8.009t8.581-19.45v-112.125l24.027-9.153q17.162-5.721 33.18-13.73l24.027-11.441 78.945 80.089q8.009 8.009 19.45 8.009t19.45-8.009l91.531-91.531q8.009-8.009 8.009-19.45t-8.009-19.45l-80.089-78.945 11.441-24.027q8.009-16.018 13.73-33.18l9.153-24.027h112.125q11.441 0 19.45-8.581t8.009-20.022v-128.143zM512 603.101q-90.959 0-155.602-64.072t-64.644-155.030 64.644-155.602 155.602-64.644 155.030 64.644 64.072 155.602-64.072 155.030-155.030 64.072zM511.428 200.365q-75.513 0-129.287 53.774t-53.774 129.287 53.774 129.287 129.287 53.774 129.287-53.774 53.774-129.287-53.774-129.287-129.287-53.774z" />
<glyph unicode="&#xe791;" glyph-name="volume-o-up" d="M735.639 147.733q-12.629 0-21.048 10.524-7.367 8.419-5.788 19.47t9.998 18.417q42.097 33.677 65.776 83.141t23.679 104.715-23.679 104.189-65.776 83.667q-8.419 7.367-9.472 18.417t5.788 19.47 17.891 9.998 19.47-5.788q52.621-42.097 81.036-102.61t28.415-127.868-28.415-127.342-81.036-102.084q-7.367-6.314-16.839-6.314zM837.724 22.495q-12.629 0-21.048 9.472-7.367 9.472-5.788 20.522t9.998 17.365q70.512 57.883 109.977 139.971t39.466 173.649-39.466 173.649-109.977 139.971q-8.419 7.367-9.998 18.417t5.788 19.996 18.417 9.998 19.47-6.314q81.036-65.25 125.237-158.388t44.201-196.802-44.201-196.802-125.237-158.388q-7.367-6.314-16.839-6.314zM633.555 272.97q-12.629 0-21.048 10.524-6.314 8.419-5.262 19.47t9.472 18.417q29.468 24.206 29.468 62.619t-29.468 62.619q-8.419 7.367-9.472 18.417t5.788 19.47 17.891 9.472 19.47-5.262q50.516-41.044 50.516-105.242t-50.516-104.189q-7.367-6.314-16.839-6.314zM438.858 777.077q-19.996 0-38.939-16.839l-221.007-187.33h-97.875q-33.677 0-57.357-23.679t-23.679-57.357v-215.745q0-33.677 23.679-57.357t57.357-23.679h97.875l221.007-187.33q18.943-16.839 38.939-16.839 23.153 0 36.835 19.996 9.472 13.681 9.472 35.782v673.546q0 27.363-13.681 42.097t-32.625 14.734zM53.674 276.127v215.745q0 10.524 7.893 18.417t19.47 7.893h81.036v-269.418h-81.036q-11.577 0-19.47 7.893t-7.893 19.47zM431.491 51.963l-215.745 183.12v297.833l215.745 183.12v-664.074z" />
<glyph unicode="&#xe815;" glyph-name="loading2" d="M293.089 69.642q0-31.643-22.306-53.949t-54.468-22.306q-30.087 0-52.912 22.825t-22.825 52.912q0 32.162 22.306 54.468t53.949 22.306 53.949-22.306 22.306-53.949zM587.736-52.782q0-31.643-22.306-53.431t-53.431-21.787-53.431 21.787-22.306 53.431 22.306 53.949 53.431 22.306 53.431-22.306 22.306-53.949zM170.666 364.807q0-31.125-22.306-53.431t-53.949-22.306-53.431 22.306-21.787 53.431 21.787 53.431 53.431 22.306 53.949-22.306 22.306-53.431zM883.419 69.123q0-30.087-22.825-52.912t-52.912-22.825q-32.162 0-54.468 22.306t-22.306 53.949 22.306 53.949 53.949 22.306 53.949-22.306 22.306-54.468zM311.764 659.972q0-38.906-28.012-66.918t-66.918-28.012-66.918 28.012-28.012 66.918 28.012 66.918 66.918 28.012 66.918-28.012 28.012-66.918zM1004.805 364.807q0-31.125-21.787-53.431t-53.431-22.306-53.949 22.306-22.306 53.431 22.306 53.431 53.949 22.306 53.431-22.306 21.787-53.431zM626.123 782.396q0-47.206-33.2-80.405t-80.924-33.2-80.924 33.2-33.2 80.405 33.2 80.405 80.924 33.2 80.924-33.2 33.2-80.405zM940.481 660.491q0-56.024-39.425-94.411t-93.374-38.387q-56.024 0-94.411 38.387t-38.387 94.411q0 53.949 38.387 93.374t94.411 39.425q53.949 0 93.374-39.425t39.425-93.374z" />
<glyph unicode="&#xe848;" glyph-name="plus2" d="M512 895.999q21.583 0 36.571-14.988t14.988-36.571v-408.881h408.881q21.583 0 36.571-14.988t14.988-36.571-14.988-36.571-36.571-14.988h-408.881v-408.881q0-21.583-14.988-36.571t-36.571-14.988-36.571 14.988-14.988 36.571v408.881h-408.881q-21.583 0-36.571 14.988t-14.988 36.571 14.988 36.571 36.571 14.988h408.881v408.881q0 21.583 14.988 36.571t36.571 14.988z" />
<glyph unicode="&#xe896;" glyph-name="lock-o" d="M510.333 896q-110.072 0-184.009-77.828t-73.937-194.571v-95.618h-7.783q-57.815 0-98.953-42.25t-41.138-102.289v-368.017q0-58.928 41.138-101.177t98.953-42.25h534.793q57.815 0 98.953 42.25t41.138 101.177v368.017q0 60.039-41.138 102.289t-98.953 42.25h-7.783v95.618q0 116.743-74.493 194.571t-186.789 77.828zM510.333 852.637q95.618 0 156.769-64.487t61.15-164.552v-94.506h-432.504v94.506q0 100.066 60.595 164.552t153.989 64.487zM877.239 383.443v-368.017q0-41.138-28.908-71.158t-68.934-30.020h-534.793q-40.026 0-68.934 30.020t-28.908 71.158v368.017q0 42.25 28.908 71.714t68.934 29.463h51.144v2.224h432.504v-2.224h51.144q40.026 0 68.934-29.463t28.908-71.714zM506.998 326.739q-25.573 0-43.362-18.901t-17.789-45.585q0-36.69 30.020-54.48v-104.513q0-13.342 9.451-22.792t22.236-9.451 21.681 9.451 8.895 22.792v104.513q31.131 17.789 31.131 54.48 0 26.684-18.346 45.585t-43.917 18.901z" />
<glyph unicode="&#xe900;" glyph-name="arrow-first" d="M904.892-54.839l-0.284 0.284c-0.091 0.094-0.182 0.183-0.274 0.273l-438.097 438.114 438.62 438.684c7.748 7.748 12.543 18.456 12.543 30.279 0 23.648-19.169 42.819-42.82 42.819-12.638 0-23.998-5.481-31.836-14.191l-467.244-467.253c-7.768-7.751-12.576-18.47-12.576-30.311 0-11.715 4.702-22.324 12.317-30.056v-0.088l468.341-468.34c0.23-0.235 0.461-0.467 0.694-0.693l0.070-0.071 0.003 0.003c7.712-7.506 18.24-12.135 29.85-12.135 23.65 0 42.82 19.171 42.82 42.82 0 11.61-4.628 22.138-12.133 29.851l0.009 0.008zM149.249 896c-23.551 0-42.649-19.105-42.647-42.675l0.035-939.981c0.704-22.954 19.504-41.342 42.612-41.343s41.91 18.391 42.612 41.343h0.035v939.981c0 23.569-19.095 42.675-42.647 42.675z" />
<glyph unicode="&#xe901;" glyph-name="arrow-last" d="M119.108 822.839l0.284-0.284c0.091-0.094 0.182-0.183 0.274-0.273l438.097-438.114-438.62-438.684c-7.748-7.748-12.543-18.456-12.543-30.279 0-23.648 19.169-42.819 42.82-42.819 12.638 0 23.998 5.481 31.836 14.191l467.244 467.253c7.768 7.751 12.576 18.47 12.576 30.311 0 11.715-4.702 22.324-12.317 30.056v0.088l-468.341 468.34c-0.23 0.235-0.461 0.467-0.694 0.693l-0.070 0.071-0.003-0.003c-7.712 7.506-18.24 12.135-29.85 12.135-23.65 0-42.82-19.171-42.82-42.82 0-11.61 4.628-22.138 12.133-29.851l-0.009-0.008zM874.751-128c23.551 0 42.649 19.105 42.647 42.675l-0.035 939.981c-0.704 22.954-19.504 41.342-42.612 41.343s-41.91-18.391-42.612-41.343h-0.035v-939.981c0-23.569 19.095-42.675 42.647-42.675z" />
<glyph unicode="&#xe902;" glyph-name="shop-o" horiz-adv-x="1039" d="M150.287-82.884c-46.191 0.004-83.771 37.498-83.771 83.584l-0.274 206.549c-0.025 13.013 10.534 23.614 23.537 23.638 13.025 0 23.605-10.557 23.63-23.536l0.275-206.632c0-20.084 16.422-36.439 36.609-36.439l725.105 0.468c20.197 0.057 36.6 16.495 36.6 36.645l-0.076 210.272c0 13 10.577 23.579 23.578 23.579 13.007 0 23.59-10.58 23.59-23.585l0.076-210.232c0-46.135-37.546-83.753-83.698-83.853l-725.18-0.461zM197.111 296.642c-31.7 0.006-60.144 5.781-84.697 17.184l-11.174 5.77c-62.477 34.766-101.175 100.373-101.244 172.092 0 20.749 3.318 41.468 9.863 61.564l0.26 0.797 0.169 0.82c0.309 1.503 0.6 2.604 0.776 3.201l97.077 229.372 0.183 0.548c13.189 39.384 48.877 62.898 95.464 62.898h634.067c46.86-0.104 85.721-25.674 98.964-65.143l0.138-0.412 90.608-225.539c0.426-1.003 0.781-2.21 1.089-3.691l0.070-0.337 0.061-0.236 0.172-1.3 0.437-1.325c6.321-19.201 9.609-40.065 9.508-60.337 0.033-72.275-39.278-138.613-102.589-173.209-26.577-14.568-58.283-22.038-94.257-22.213-58.397 0-113.317 25.472-150.606 69.885l-11.457 13.647-11.452-13.652c-36.913-44.001-91.104-69.51-148.687-69.999-57.97 0.388-112.462 25.833-149.522 69.828l-11.457 13.601-11.435-13.62c-37.298-44.43-92.091-70.014-150.33-70.192h0.004zM130.081 357.601c18.742-9.186 41.257-13.84 66.998-13.84 51.976 0.177 99.475 26.742 127.112 71.063l0.531 0.851 0.412 0.914c1.792 3.974 4.055 8.598 8.23 13.167l0.215 0.235 0.205 0.243c4.586 5.466 14.247 8.998 24.616 8.998 11.269 0 21.335-3.982 26.924-10.651l0.297-0.344c3.076-3.452 5.313-8.022 6.792-11.046l0.392-0.801 0.384-0.621c27.456-44.523 74.768-71.282 126.557-71.58h0.2c51.309 0.392 98.294 27.088 125.686 71.416l0.414 0.671 0.342 0.712c1.631 3.394 3.865 8.042 7.797 12.467l0.205 0.231 0.196 0.239c5.169 6.33 15.19 10.418 25.53 10.418 10.857 0 19.536-3.557 25.796-10.572l0.102-0.114c4.079-4.478 6.304-9.273 7.778-12.446l0.374-0.807 0.467-0.757c27.593-44.672 75.225-71.343 127.415-71.343 28.008 0.168 52.111 5.702 71.736 16.448 48.215 26.375 78.114 76.818 78.024 131.641 0 16.26-2.74 32.574-8.148 48.47-0.308 1.036-0.578 2.081-0.785 3.032l-0.268 1.236-89.897 223.85c-11.15 32.042-43.268 33.963-53.852 34.596l-0.447 0.027h-634.708c-18.324 0-42.093-5.741-51.622-32.996l-95.975-226.903-0.295-1.306c-0.224-0.989-0.399-1.582-0.508-1.907-5.42-15.93-8.175-32.399-8.175-48.896 0.038-55.51 30.483-106.18 79.455-132.244l3.294-1.754h0.206zM204.399 534.915c-13.005 0-23.584 10.582-23.584 23.588s10.58 23.584 23.584 23.584h616.613c13.001 0 23.576-10.58 23.576-23.584 0-13.007-10.577-23.588-23.576-23.588h-616.613z" />
<glyph unicode="&#xe903;" glyph-name="money2" d="M1001.344 556.076l-317.44 317.823c-15.744 15.744-38.527 22.101-60.16 16.767-11.435-2.774-21.589-8.704-29.611-16.767-7.211-7.211-12.672-16.171-15.744-26.155-14.421-46.677-39.296-87.254-76.032-124.075-49.109-49.152-113.109-86.4-180.864-125.739-71.851-41.727-146.091-84.906-206.934-145.835-51.797-51.84-86.997-109.525-107.647-176.426-6.912-22.571-0.854-47.061 15.744-63.744l317.44-317.823c15.744-15.744 38.527-22.101 60.16-16.767 11.435 2.859 21.589 8.704 29.611 16.767 7.211 7.211 12.672 16.171 15.744 26.197 14.421 46.677 39.296 87.296 76.075 124.075 49.066 49.152 113.066 86.357 180.821 125.696 71.851 41.771 146.091 84.992 206.934 145.877 51.755 51.797 86.912 109.482 107.562 176.426 6.997 22.527 0.939 47.061-15.659 63.701zM385.025-60.968c-105.131 105.301-212.309 212.607-317.44 317.823 90.197 292.437 481.152 279.637 571.392 572.074 105.131-105.216 212.309-212.522 317.44-317.823-90.197-292.352-481.194-279.595-571.392-572.074zM625.025 418.946c-10.367 8.661-20.779 14.592-31.232 17.494-10.411 2.901-20.821 4.096-31.36 3.327-10.411-0.811-21.077-3.157-31.744-7.254-10.666-4.181-21.376-8.704-32.171-13.909-17.024 19.626-34.091 38.997-51.157 57.002 7.722 6.955 15.146 10.496 22.315 10.752 7.167 0.299 14.165-0.469 20.694-2.134 6.699-1.664 12.842-3.072 18.475-4.224 5.76-1.109 10.666 0.127 15.019 3.797 4.565 3.967 7.167 9.131 7.509 15.317 0.341 6.229-2.005 12.331-7.254 18.304-6.656 7.722-14.762 12.374-24.405 14.080-9.557 1.706-19.327 1.579-29.482-0.682-10.026-2.304-19.584-6.101-28.672-11.435-9.002-5.334-16.299-10.795-21.675-16.171-2.091 2.005-4.139 3.925-6.229 5.845-2.304 2.134-5.12 3.242-8.534 3.157-3.499 0-6.315-1.451-8.661-4.224-2.346-2.687-3.371-5.76-2.901-9.045 0.299-3.414 1.664-6.059 4.011-8.021 2.091-1.706 4.139-3.456 6.229-5.247-8.106-9.814-14.805-20.651-20.096-32.085-5.334-11.52-8.491-22.869-9.727-33.92-1.195-11.136-0.042-21.291 3.371-30.72 3.414-9.515 9.685-17.579 18.859-25.216 14.934-12.416 32.512-17.706 52.906-16.512 20.352 1.195 42.282 7.296 65.835 19.967 18.731-21.675 37.589-43.221 56.32-63.146-7.979-6.699-14.934-10.581-21.035-11.776-6.144-1.322-11.605-1.195-16.555 0.299-4.992 1.536-9.6 3.797-13.739 6.614-4.266 2.901-8.405 5.419-12.544 7.466s-8.277 3.157-12.672 3.242c-4.352 0.042-8.917-2.047-13.995-6.4-5.205-4.522-7.807-9.771-7.807-15.744 0-5.931 2.687-11.904 8.021-18.005 5.376-6.101 12.374-11.179 20.864-15.189s18.091-6.571 28.586-7.296c10.539-0.725 21.675 0.896 33.365 5.247 11.776 4.266 23.424 12.032 34.859 23.595 5.589-5.419 11.179-10.581 16.725-15.531 2.389-2.047 5.205-3.029 8.661-2.774 3.371 0.127 6.272 1.664 8.534 4.437 2.389 2.859 3.371 6.059 2.986 9.344-0.341 3.327-1.664 5.887-4.011 7.765-5.589 4.48-11.136 9.216-16.725 14.165 9.472 11.647 17.109 23.979 22.741 36.139 5.632 12.202 8.96 24.021 10.112 34.944 1.066 10.965-0.214 20.906-3.797 29.909-3.414 9.131-9.771 16.939-18.816 24.447zM447.575 397.398c-9.002-0.384-16.854 2.602-23.68 9.259-2.901 2.774-4.949 6.229-6.229 10.24s-1.706 8.405-1.195 13.269c0.426 4.779 1.835 9.771 4.352 14.805 2.346 5.035 5.845 10.026 10.24 14.934 16.085-16.042 32.171-33.579 48.256-51.797-12.16-6.741-22.741-10.325-31.744-10.709zM597.335 333.784c-2.816-5.291-6.186-9.984-9.984-14.080-17.749 18.005-35.541 37.717-53.334 57.984 4.522 2.091 9.344 4.181 14.506 6.357 5.077 2.176 10.24 3.584 15.402 4.437 5.247 0.811 10.454 0.555 15.659-0.725 5.162-1.28 10.069-4.096 14.592-8.491 4.437-4.437 7.339-9.131 8.405-14.122 1.237-5.12 1.322-10.24 0.426-15.531-0.939-5.205-2.774-10.496-5.675-15.829zM471.298 187.565v0c-19.925-15.232-39.296-31.317-57.216-49.322-17.237-17.237-32.854-35.456-46.379-54.016l-21.717-29.654 0.085-0.085c-4.011-6.229-3.285-14.549 2.091-19.925 6.229-6.229 16.341-6.229 22.571 0 0.896 0.981 1.664 2.047 2.346 3.157l20.266 27.776c12.586 17.195 27.179 34.176 43.264 50.219 17.749 17.835 34.304 31.616 54.357 46.891l-0.042 0.085c0.555 0.426 1.066 0.811 1.579 1.28 6.229 6.229 6.229 16.341 0 22.527-5.76 5.887-15.019 6.144-21.205 1.066zM587.521 647.339c-16.64-16.64-34.645-31.616-53.247-45.866-1.322-0.767-2.687-1.536-3.755-2.731-6.229-6.229-6.229-16.469 0-22.699 6.101-6.144 15.915-6.272 22.229-0.426l0.127-0.085c19.84 15.275 39.167 31.402 57.087 49.322 17.237 17.28 32.854 35.414 46.379 53.974l21.717 29.781-0.085 0.085c5.419 6.315 5.162 15.744-0.811 21.717-6.229 6.272-16.384 6.272-22.614 0-1.152-1.152-2.005-2.56-2.731-3.925l-21.205-28.927c-12.544-17.28-27.094-34.134-43.094-50.219z" />
<glyph unicode="&#xf000;" glyph-name="glass" d="M970.857 771.428q0-20-24.571-44.571l-361.143-361.143v-438.857h182.857q14.857 0 25.714-10.857t10.857-25.714-10.857-25.714-25.714-10.857h-512q-14.857 0-25.714 10.857t-10.857 25.714 10.857 25.714 25.714 10.857h182.857v438.857l-361.143 361.143q-24.571 24.571-24.571 44.571 0 13.143 10.286 20.857t21.714 10 24.571 2.286h804.571q13.143 0 24.571-2.286t21.714-10 10.286-20.857z" />
<glyph unicode="&#xf001;" glyph-name="music" horiz-adv-x="878" d="M877.714 749.714v-640q0-28.571-19.429-50.857t-49.143-34.571-59.143-18.286-55.143-6-55.143 6-59.143 18.286-49.143 34.571-19.429 50.857 19.429 50.857 49.143 34.571 59.143 18.286 55.143 6q60 0 109.714-22.286v306.857l-438.857-135.429v-405.143q0-28.571-19.429-50.857t-49.143-34.571-59.143-18.286-55.143-6-55.143 6-59.143 18.286-49.143 34.571-19.429 50.857 19.429 50.857 49.143 34.571 59.143 18.286 55.143 6q60 0 109.714-22.286v552.571q0 17.714 10.857 32.286t28 20.286l475.429 146.286q6.857 2.286 16 2.286 22.857 0 38.857-16t16-38.857z" />
<glyph unicode="&#xf002;" glyph-name="search" horiz-adv-x="951" d="M658.286 402.285q0 105.714-75.143 180.857t-180.857 75.143-180.857-75.143-75.143-180.857 75.143-180.857 180.857-75.143 180.857 75.143 75.143 180.857zM950.857-73.143q0-29.714-21.714-51.429t-51.429-21.714q-30.857 0-51.429 21.714l-196 195.429q-102.286-70.857-228-70.857-81.714 0-156.286 31.714t-128.571 85.714-85.714 128.571-31.714 156.286 31.714 156.286 85.714 128.571 128.571 85.714 156.286 31.714 156.286-31.714 128.571-85.714 85.714-128.571 31.714-156.286q0-125.714-70.857-228l196-196q21.143-21.143 21.143-51.429z" />
<glyph unicode="&#xf003;" glyph-name="envelope-o" d="M950.857 18.285v438.857q-18.286-20.571-39.429-37.714-153.143-117.714-243.429-193.143-29.143-24.571-47.429-38.286t-49.429-27.714-58.571-14h-1.143q-27.429 0-58.571 14t-49.429 27.714-47.429 38.286q-90.286 75.429-243.429 193.143-21.143 17.143-39.429 37.714v-438.857q0-7.429 5.429-12.857t12.857-5.429h841.143q7.429 0 12.857 5.429t5.429 12.857zM950.857 618.857v14t-0.286 7.429-1.714 7.143-3.143 5.143-5.143 4.286-8 1.429h-841.143q-7.429 0-12.857-5.429t-5.429-12.857q0-96 84-162.286 110.286-86.857 229.143-181.143 3.429-2.857 20-16.857t26.286-21.429 25.429-18 28.857-15.714 24.571-5.143h1.143q11.429 0 24.571 5.143t28.857 15.714 25.429 18 26.286 21.429 20 16.857q118.857 94.286 229.143 181.143 30.857 24.571 57.429 66t26.571 75.143zM1024 640v-621.714q0-37.714-26.857-64.571t-64.571-26.857h-841.143q-37.714 0-64.571 26.857t-26.857 64.571v621.714q0 37.714 26.857 64.571t64.571 26.857h841.143q37.714 0 64.571-26.857t26.857-64.571z" />
<glyph unicode="&#xf004;" glyph-name="heart" d="M512-73.143q-14.857 0-25.143 10.286l-356.571 344q-5.714 4.571-15.714 14.857t-31.714 37.429-38.857 55.714-30.571 69.143-13.429 78.857q0 125.714 72.571 196.571t200.571 70.857q35.429 0 72.286-12.286t68.571-33.143 54.571-39.143 43.429-38.857q20.571 20.571 43.429 38.857t54.571 39.143 68.571 33.143 72.286 12.286q128 0 200.571-70.857t72.571-196.571q0-126.286-130.857-257.143l-356-342.857q-10.286-10.286-25.143-10.286z" />
<glyph unicode="&#xf005;" glyph-name="star" horiz-adv-x="951" d="M950.857 508q0-12.571-14.857-27.429l-207.429-202.286 49.143-285.714q0.571-4 0.571-11.429 0-12-6-20.286t-17.429-8.286q-10.857 0-22.857 6.857l-256.571 134.857-256.571-134.857q-12.571-6.857-22.857-6.857-12 0-18 8.286t-6 20.286q0 3.429 1.143 11.429l49.143 285.714-208 202.286q-14.286 15.429-14.286 27.429 0 21.143 32 26.286l286.857 41.714 128.571 260q10.857 23.429 28 23.429t28-23.429l128.571-260 286.857-41.714q32-5.143 32-26.286z" />
<glyph unicode="&#xf006;" glyph-name="star-o" horiz-adv-x="951" d="M649.714 304l174.857 169.714-241.143 35.429-108 218.286-108-218.286-241.143-35.429 174.857-169.714-41.714-240.571 216 113.714 215.429-113.714zM950.857 508q0-12.571-14.857-27.429l-207.429-202.286 49.143-285.714q0.571-4 0.571-11.429 0-28.571-23.429-28.571-10.857 0-22.857 6.857l-256.571 134.857-256.571-134.857q-12.571-6.857-22.857-6.857-12 0-18 8.286t-6 20.286q0 3.429 1.143 11.429l49.143 285.714-208 202.286q-14.286 15.429-14.286 27.429 0 21.143 32 26.286l286.857 41.714 128.571 260q10.857 23.429 28 23.429t28-23.429l128.571-260 286.857-41.714q32-5.143 32-26.286z" />
<glyph unicode="&#xf007;" glyph-name="user" horiz-adv-x="805" d="M804.571 74.857q0-68.571-41.714-108.286t-110.857-39.714h-499.429q-69.143 0-110.857 39.714t-41.714 108.286q0 30.286 2 59.143t8 62.286 15.143 62 24.571 55.714 35.429 46.286 48.857 30.571 63.714 11.429q5.143 0 24-12.286t42.571-27.429 61.714-27.429 76.286-12.286 76.286 12.286 61.714 27.429 42.571 27.429 24 12.286q34.857 0 63.714-11.429t48.857-30.571 35.429-46.286 24.571-55.714 15.143-62 8-62.286 2-59.143zM621.714 585.143q0-90.857-64.286-155.143t-155.143-64.286-155.143 64.286-64.286 155.143 64.286 155.143 155.143 64.286 155.143-64.286 64.286-155.143z" />
<glyph unicode="&#xf008;" glyph-name="film" horiz-adv-x="1097" d="M219.429-36.572v73.143q0 14.857-10.857 25.714t-25.714 10.857h-73.143q-14.857 0-25.714-10.857t-10.857-25.714v-73.143q0-14.857 10.857-25.714t25.714-10.857h73.143q14.857 0 25.714 10.857t10.857 25.714zM219.429 182.857v73.143q0 14.857-10.857 25.714t-25.714 10.857h-73.143q-14.857 0-25.714-10.857t-10.857-25.714v-73.143q0-14.857 10.857-25.714t25.714-10.857h73.143q14.857 0 25.714 10.857t10.857 25.714zM219.429 402.285v73.143q0 14.857-10.857 25.714t-25.714 10.857h-73.143q-14.857 0-25.714-10.857t-10.857-25.714v-73.143q0-14.857 10.857-25.714t25.714-10.857h73.143q14.857 0 25.714 10.857t10.857 25.714zM804.571-36.572v292.571q0 14.857-10.857 25.714t-25.714 10.857h-438.857q-14.857 0-25.714-10.857t-10.857-25.714v-292.571q0-14.857 10.857-25.714t25.714-10.857h438.857q14.857 0 25.714 10.857t10.857 25.714zM219.429 621.714v73.143q0 14.857-10.857 25.714t-25.714 10.857h-73.143q-14.857 0-25.714-10.857t-10.857-25.714v-73.143q0-14.857 10.857-25.714t25.714-10.857h73.143q14.857 0 25.714 10.857t10.857 25.714zM1024-36.572v73.143q0 14.857-10.857 25.714t-25.714 10.857h-73.143q-14.857 0-25.714-10.857t-10.857-25.714v-73.143q0-14.857 10.857-25.714t25.714-10.857h73.143q14.857 0 25.714 10.857t10.857 25.714zM804.571 402.285v292.571q0 14.857-10.857 25.714t-25.714 10.857h-438.857q-14.857 0-25.714-10.857t-10.857-25.714v-292.571q0-14.857 10.857-25.714t25.714-10.857h438.857q14.857 0 25.714 10.857t10.857 25.714zM1024 182.857v73.143q0 14.857-10.857 25.714t-25.714 10.857h-73.143q-14.857 0-25.714-10.857t-10.857-25.714v-73.143q0-14.857 10.857-25.714t25.714-10.857h73.143q14.857 0 25.714 10.857t10.857 25.714zM1024 402.285v73.143q0 14.857-10.857 25.714t-25.714 10.857h-73.143q-14.857 0-25.714-10.857t-10.857-25.714v-73.143q0-14.857 10.857-25.714t25.714-10.857h73.143q14.857 0 25.714 10.857t10.857 25.714zM1024 621.714v73.143q0 14.857-10.857 25.714t-25.714 10.857h-73.143q-14.857 0-25.714-10.857t-10.857-25.714v-73.143q0-14.857 10.857-25.714t25.714-10.857h73.143q14.857 0 25.714 10.857t10.857 25.714zM1097.143 713.143v-768q0-37.714-26.857-64.571t-64.571-26.857h-914.286q-37.714 0-64.571 26.857t-26.857 64.571v768q0 37.714 26.857 64.571t64.571 26.857h914.286q37.714 0 64.571-26.857t26.857-64.571z" />
<glyph unicode="&#xf009;" glyph-name="th-large" horiz-adv-x="951" d="M438.857 292.571v-219.429q0-29.714-21.714-51.429t-51.429-21.714h-292.571q-29.714 0-51.429 21.714t-21.714 51.429v219.429q0 29.714 21.714 51.429t51.429 21.714h292.571q29.714 0 51.429-21.714t21.714-51.429zM438.857 731.428v-219.429q0-29.714-21.714-51.429t-51.429-21.714h-292.571q-29.714 0-51.429 21.714t-21.714 51.429v219.429q0 29.714 21.714 51.429t51.429 21.714h292.571q29.714 0 51.429-21.714t21.714-51.429zM950.857 292.571v-219.429q0-29.714-21.714-51.429t-51.429-21.714h-292.571q-29.714 0-51.429 21.714t-21.714 51.429v219.429q0 29.714 21.714 51.429t51.429 21.714h292.571q29.714 0 51.429-21.714t21.714-51.429zM950.857 731.428v-219.429q0-29.714-21.714-51.429t-51.429-21.714h-292.571q-29.714 0-51.429 21.714t-21.714 51.429v219.429q0 29.714 21.714 51.429t51.429 21.714h292.571q29.714 0 51.429-21.714t21.714-51.429z" />
<glyph unicode="&#xf00a;" glyph-name="th" d="M292.571 164.571v-109.714q0-22.857-16-38.857t-38.857-16h-182.857q-22.857 0-38.857 16t-16 38.857v109.714q0 22.857 16 38.857t38.857 16h182.857q22.857 0 38.857-16t16-38.857zM292.571 457.143v-109.714q0-22.857-16-38.857t-38.857-16h-182.857q-22.857 0-38.857 16t-16 38.857v109.714q0 22.857 16 38.857t38.857 16h182.857q22.857 0 38.857-16t16-38.857zM658.286 164.571v-109.714q0-22.857-16-38.857t-38.857-16h-182.857q-22.857 0-38.857 16t-16 38.857v109.714q0 22.857 16 38.857t38.857 16h182.857q22.857 0 38.857-16t16-38.857zM292.571 749.714v-109.714q0-22.857-16-38.857t-38.857-16h-182.857q-22.857 0-38.857 16t-16 38.857v109.714q0 22.857 16 38.857t38.857 16h182.857q22.857 0 38.857-16t16-38.857zM658.286 457.143v-109.714q0-22.857-16-38.857t-38.857-16h-182.857q-22.857 0-38.857 16t-16 38.857v109.714q0 22.857 16 38.857t38.857 16h182.857q22.857 0 38.857-16t16-38.857zM1024 164.571v-109.714q0-22.857-16-38.857t-38.857-16h-182.857q-22.857 0-38.857 16t-16 38.857v109.714q0 22.857 16 38.857t38.857 16h182.857q22.857 0 38.857-16t16-38.857zM658.286 749.714v-109.714q0-22.857-16-38.857t-38.857-16h-182.857q-22.857 0-38.857 16t-16 38.857v109.714q0 22.857 16 38.857t38.857 16h182.857q22.857 0 38.857-16t16-38.857zM1024 457.143v-109.714q0-22.857-16-38.857t-38.857-16h-182.857q-22.857 0-38.857 16t-16 38.857v109.714q0 22.857 16 38.857t38.857 16h182.857q22.857 0 38.857-16t16-38.857zM1024 749.714v-109.714q0-22.857-16-38.857t-38.857-16h-182.857q-22.857 0-38.857 16t-16 38.857v109.714q0 22.857 16 38.857t38.857 16h182.857q22.857 0 38.857-16t16-38.857z" />
<glyph unicode="&#xf00b;" glyph-name="th-list" d="M292.571 164.571v-109.714q0-22.857-16-38.857t-38.857-16h-182.857q-22.857 0-38.857 16t-16 38.857v109.714q0 22.857 16 38.857t38.857 16h182.857q22.857 0 38.857-16t16-38.857zM292.571 457.143v-109.714q0-22.857-16-38.857t-38.857-16h-182.857q-22.857 0-38.857 16t-16 38.857v109.714q0 22.857 16 38.857t38.857 16h182.857q22.857 0 38.857-16t16-38.857zM1024 164.571v-109.714q0-22.857-16-38.857t-38.857-16h-548.571q-22.857 0-38.857 16t-16 38.857v109.714q0 22.857 16 38.857t38.857 16h548.571q22.857 0 38.857-16t16-38.857zM292.571 749.714v-109.714q0-22.857-16-38.857t-38.857-16h-182.857q-22.857 0-38.857 16t-16 38.857v109.714q0 22.857 16 38.857t38.857 16h182.857q22.857 0 38.857-16t16-38.857zM1024 457.143v-109.714q0-22.857-16-38.857t-38.857-16h-548.571q-22.857 0-38.857 16t-16 38.857v109.714q0 22.857 16 38.857t38.857 16h548.571q22.857 0 38.857-16t16-38.857zM1024 749.714v-109.714q0-22.857-16-38.857t-38.857-16h-548.571q-22.857 0-38.857 16t-16 38.857v109.714q0 22.857 16 38.857t38.857 16h548.571q22.857 0 38.857-16t16-38.857z" />
<glyph unicode="&#xf00c;" glyph-name="check" d="M954.857 554.285q0-22.857-16-38.857l-491.429-491.429q-16-16-38.857-16t-38.857 16l-284.571 284.571q-16 16-16 38.857t16 38.857l77.714 77.714q16 16 38.857 16t38.857-16l168-168.571 374.857 375.429q16 16 38.857 16t38.857-16l77.714-77.714q16-16 16-38.857z" />
<glyph unicode="&#xf00d;" glyph-name="close, remove, times" horiz-adv-x="805" d="M741.714 122.285q0-22.857-16-38.857l-77.714-77.714q-16-16-38.857-16t-38.857 16l-168 168-168-168q-16-16-38.857-16t-38.857 16l-77.714 77.714q-16 16-16 38.857t16 38.857l168 168-168 168q-16 16-16 38.857t16 38.857l77.714 77.714q16 16 38.857 16t38.857-16l168-168 168 168q16 16 38.857 16t38.857-16l77.714-77.714q16-16 16-38.857t-16-38.857l-168-168 168-168q16-16 16-38.857z" />
<glyph unicode="&#xf00e;" glyph-name="search-plus" horiz-adv-x="951" d="M585.143 420.571v-36.571q0-7.429-5.429-12.857t-12.857-5.429h-128v-128q0-7.429-5.429-12.857t-12.857-5.429h-36.571q-7.429 0-12.857 5.429t-5.429 12.857v128h-128q-7.429 0-12.857 5.429t-5.429 12.857v36.571q0 7.429 5.429 12.857t12.857 5.429h128v128q0 7.429 5.429 12.857t12.857 5.429h36.571q7.429 0 12.857-5.429t5.429-12.857v-128h128q7.429 0 12.857-5.429t5.429-12.857zM658.286 402.285q0 105.714-75.143 180.857t-180.857 75.143-180.857-75.143-75.143-180.857 75.143-180.857 180.857-75.143 180.857 75.143 75.143 180.857zM950.857-73.143q0-30.286-21.429-51.714t-51.714-21.429q-30.857 0-51.429 21.714l-196 195.429q-102.286-70.857-228-70.857-81.714 0-156.286 31.714t-128.571 85.714-85.714 128.571-31.714 156.286 31.714 156.286 85.714 128.571 128.571 85.714 156.286 31.714 156.286-31.714 128.571-85.714 85.714-128.571 31.714-156.286q0-125.714-70.857-228l196-196q21.143-21.143 21.143-51.429z" />
<glyph unicode="&#xf010;" glyph-name="search-minus" horiz-adv-x="951" d="M585.143 420.571v-36.571q0-7.429-5.429-12.857t-12.857-5.429h-329.143q-7.429 0-12.857 5.429t-5.429 12.857v36.571q0 7.429 5.429 12.857t12.857 5.429h329.143q7.429 0 12.857-5.429t5.429-12.857zM658.286 402.285q0 105.714-75.143 180.857t-180.857 75.143-180.857-75.143-75.143-180.857 75.143-180.857 180.857-75.143 180.857 75.143 75.143 180.857zM950.857-73.143q0-30.286-21.429-51.714t-51.714-21.429q-30.857 0-51.429 21.714l-196 195.429q-102.286-70.857-228-70.857-81.714 0-156.286 31.714t-128.571 85.714-85.714 128.571-31.714 156.286 31.714 156.286 85.714 128.571 128.571 85.714 156.286 31.714 156.286-31.714 128.571-85.714 85.714-128.571 31.714-156.286q0-125.714-70.857-228l196-196q21.143-21.143 21.143-51.429z" />
<glyph unicode="&#xf011;" glyph-name="power-off" horiz-adv-x="878" d="M877.714 365.714q0-89.143-34.857-170.286t-93.714-140-140-93.714-170.286-34.857-170.286 34.857-140 93.714-93.714 140-34.857 170.286q0 104 46 196t129.429 154.286q24.571 18.286 54.571 14.286t47.714-28.571q18.286-24 14-54t-28.286-48.286q-56-42.286-86.571-103.429t-30.571-130.286q0-59.429 23.143-113.429t62.571-93.429 93.429-62.571 113.429-23.143 113.429 23.143 93.429 62.571 62.571 93.429 23.143 113.429q0 69.143-30.571 130.286t-86.571 103.429q-24 18.286-28.286 48.286t14 54q17.714 24.571 48 28.571t54.286-14.286q83.429-62.286 129.429-154.286t46-196zM512 804.571v-365.714q0-29.714-21.714-51.429t-51.429-21.714-51.429 21.714-21.714 51.429v365.714q0 29.714 21.714 51.429t51.429 21.714 51.429-21.714 21.714-51.429z" />
<glyph unicode="&#xf012;" glyph-name="signal" d="M146.286 54.857v-109.714q0-8-5.143-13.143t-13.143-5.143h-109.714q-8 0-13.143 5.143t-5.143 13.143v109.714q0 8 5.143 13.143t13.143 5.143h109.714q8 0 13.143-5.143t5.143-13.143zM365.714 128v-182.857q0-8-5.143-13.143t-13.143-5.143h-109.714q-8 0-13.143 5.143t-5.143 13.143v182.857q0 8 5.143 13.143t13.143 5.143h109.714q8 0 13.143-5.143t5.143-13.143zM585.143 274.285v-329.143q0-8-5.143-13.143t-13.143-5.143h-109.714q-8 0-13.143 5.143t-5.143 13.143v329.143q0 8 5.143 13.143t13.143 5.143h109.714q8 0 13.143-5.143t5.143-13.143zM804.571 493.714v-548.571q0-8-5.143-13.143t-13.143-5.143h-109.714q-8 0-13.143 5.143t-5.143 13.143v548.571q0 8 5.143 13.143t13.143 5.143h109.714q8 0 13.143-5.143t5.143-13.143zM1024 786.285v-841.143q0-8-5.143-13.143t-13.143-5.143h-109.714q-8 0-13.143 5.143t-5.143 13.143v841.143q0 8 5.143 13.143t13.143 5.143h109.714q8 0 13.143-5.143t5.143-13.143z" />
<glyph unicode="&#xf013;" glyph-name="cog, gear" horiz-adv-x="878" d="M585.143 365.714q0 60.571-42.857 103.429t-103.429 42.857-103.429-42.857-42.857-103.429 42.857-103.429 103.429-42.857 103.429 42.857 42.857 103.429zM877.714 428v-126.857q0-6.857-4.571-13.143t-11.429-7.429l-105.714-16q-10.857-30.857-22.286-52 20-28.571 61.143-78.857 5.714-6.857 5.714-14.286t-5.143-13.143q-15.429-21.143-56.571-61.714t-53.714-40.571q-6.857 0-14.857 5.143l-78.857 61.714q-25.143-13.143-52-21.714-9.143-77.714-16.571-106.286-4-16-20.571-16h-126.857q-8 0-14 4.857t-6.571 12.286l-16 105.143q-28 9.143-51.429 21.143l-80.571-61.143q-5.714-5.143-14.286-5.143-8 0-14.286 6.286-72 65.143-94.286 96-4 5.714-4 13.143 0 6.857 4.571 13.143 8.571 12 29.143 38t30.857 40.286q-15.429 28.571-23.429 56.571l-104.571 15.429q-7.429 1.143-12 7.143t-4.571 13.429v126.857q0 6.857 4.571 13.143t10.857 7.429l106.286 16q8 26.286 22.286 52.571-22.857 32.571-61.143 78.857-5.714 6.857-5.714 13.714 0 5.714 5.143 13.143 14.857 20.571 56.286 61.429t54 40.857q7.429 0 14.857-5.714l78.857-61.143q25.143 13.143 52 21.714 9.143 77.714 16.571 106.286 4 16 20.571 16h126.857q8 0 14-4.857t6.571-12.286l16-105.143q28-9.143 51.429-21.143l81.143 61.143q5.143 5.143 13.714 5.143 7.429 0 14.286-5.714 73.714-68 94.286-97.143 4-4.571 4-12.571 0-6.857-4.571-13.143-8.571-12-29.143-38t-30.857-40.286q14.857-28.571 23.429-56l104.571-16q7.429-1.143 12-7.143t4.571-13.429z" />
<glyph unicode="&#xf014;" glyph-name="trash-o" horiz-adv-x="805" d="M292.571 457.143v-329.143q0-8-5.143-13.143t-13.143-5.143h-36.571q-8 0-13.143 5.143t-5.143 13.143v329.143q0 8 5.143 13.143t13.143 5.143h36.571q8 0 13.143-5.143t5.143-13.143zM438.857 457.143v-329.143q0-8-5.143-13.143t-13.143-5.143h-36.571q-8 0-13.143 5.143t-5.143 13.143v329.143q0 8 5.143 13.143t13.143 5.143h36.571q8 0 13.143-5.143t5.143-13.143zM585.143 457.143v-329.143q0-8-5.143-13.143t-13.143-5.143h-36.571q-8 0-13.143 5.143t-5.143 13.143v329.143q0 8 5.143 13.143t13.143 5.143h36.571q8 0 13.143-5.143t5.143-13.143zM658.286 43.428v541.714h-512v-541.714q0-12.571 4-23.143t8.286-15.429 6-4.857h475.429q1.714 0 6 4.857t8.286 15.429 4 23.143zM274.286 658.285h256l-27.429 66.857q-4 5.143-9.714 6.286h-181.143q-5.714-1.143-9.714-6.286zM804.571 640v-36.571q0-8-5.143-13.143t-13.143-5.143h-54.857v-541.714q0-47.429-26.857-82t-64.571-34.571h-475.429q-37.714 0-64.571 33.429t-26.857 80.857v544h-54.857q-8 0-13.143 5.143t-5.143 13.143v36.571q0 8 5.143 13.143t13.143 5.143h176.571l40 95.429q8.571 21.143 30.857 36t45.143 14.857h182.857q22.857 0 45.143-14.857t30.857-36l40-95.429h176.571q8 0 13.143-5.143t5.143-13.143z" />
<glyph unicode="&#xf015;" glyph-name="home" horiz-adv-x="951" d="M804.571 310.857v-274.286q0-14.857-10.857-25.714t-25.714-10.857h-219.429v219.429h-146.286v-219.429h-219.429q-14.857 0-25.714 10.857t-10.857 25.714v274.286q0 0.571 0.286 1.714t0.286 1.714l328.571 270.857 328.571-270.857q0.571-1.143 0.571-3.429zM932 350.285l-35.429-42.286q-4.571-5.143-12-6.286h-1.714q-7.429 0-12 4l-395.429 329.714-395.429-329.714q-6.857-4.571-13.714-4-7.429 1.143-12 6.286l-35.429 42.286q-4.571 5.714-4 13.429t6.286 12.286l410.857 342.286q18.286 14.857 43.429 14.857t43.429-14.857l139.429-116.571v111.429q0 8 5.143 13.143t13.143 5.143h109.714q8 0 13.143-5.143t5.143-13.143v-233.143l125.143-104q5.714-4.571 6.286-12.286t-4-13.429z" />
<glyph unicode="&#xf016;" glyph-name="file-o" horiz-adv-x="878" d="M838.857 660.571q16-16 27.429-43.429t11.429-50.286v-658.286q0-22.857-16-38.857t-38.857-16h-768q-22.857 0-38.857 16t-16 38.857v914.286q0 22.857 16 38.857t38.857 16h512q22.857 0 50.286-11.429t43.429-27.429zM585.143 800v-214.857h214.857q-5.714 16.571-12.571 23.429l-178.857 178.857q-6.857 6.857-23.429 12.571zM804.571-73.143v585.143h-237.714q-22.857 0-38.857 16t-16 38.857v237.714h-438.857v-877.714h731.429z" />
<glyph unicode="&#xf017;" glyph-name="clock-o" horiz-adv-x="878" d="M512 566.857v-256q0-8-5.143-13.143t-13.143-5.143h-182.857q-8 0-13.143 5.143t-5.143 13.143v36.571q0 8 5.143 13.143t13.143 5.143h128v201.143q0 8 5.143 13.143t13.143 5.143h36.571q8 0 13.143-5.143t5.143-13.143zM749.714 365.714q0 84.571-41.714 156t-113.143 113.143-156 41.714-156-41.714-113.143-113.143-41.714-156 41.714-156 113.143-113.143 156-41.714 156 41.714 113.143 113.143 41.714 156zM877.714 365.714q0-119.429-58.857-220.286t-159.714-159.714-220.286-58.857-220.286 58.857-159.714 159.714-58.857 220.286 58.857 220.286 159.714 159.714 220.286 58.857 220.286-58.857 159.714-159.714 58.857-220.286z" />
<glyph unicode="&#xf018;" glyph-name="road" horiz-adv-x="1097" d="M634.857 308.571v2.286l-13.714 182.857q-0.571 7.429-6.286 12.857t-13.143 5.429h-106.286q-7.429 0-13.143-5.429t-6.286-12.857l-13.714-182.857v-2.286q-0.571-6.857 4.571-11.429t12-4.571h139.429q6.857 0 12 4.571t4.571 11.429zM1068.571 41.714q0-41.714-26.286-41.714h-402.286q7.429 0 12.571 5.429t4.571 12.857l-11.429 146.286q-0.571 7.429-6.286 12.857t-13.143 5.429h-155.429q-7.429 0-13.143-5.429t-6.286-12.857l-11.429-146.286q-0.571-7.429 4.571-12.857t12.571-5.429h-402.286q-26.286 0-26.286 41.714 0 30.857 14.857 66.286l238.286 596.571q4.571 10.857 14.857 18.857t21.714 8h193.714q-7.429 0-13.143-5.429t-6.286-12.857l-8.571-109.714q-0.571-8 4.571-13.143t12.571-5.143h94.857q7.429 0 12.571 5.143t4.571 13.143l-8.571 109.714q-0.571 7.429-6.286 12.857t-13.143 5.429h193.714q11.429 0 21.714-8t14.857-18.857l238.286-596.571q14.857-35.429 14.857-66.286z" />
<glyph unicode="&#xf019;" glyph-name="download" horiz-adv-x="951" d="M731.429 109.714q0 14.857-10.857 25.714t-25.714 10.857-25.714-10.857-10.857-25.714 10.857-25.714 25.714-10.857 25.714 10.857 10.857 25.714zM877.714 109.714q0 14.857-10.857 25.714t-25.714 10.857-25.714-10.857-10.857-25.714 10.857-25.714 25.714-10.857 25.714 10.857 10.857 25.714zM950.857 237.714v-182.857q0-22.857-16-38.857t-38.857-16h-841.143q-22.857 0-38.857 16t-16 38.857v182.857q0 22.857 16 38.857t38.857 16h265.714l77.143-77.714q33.143-32 77.714-32t77.714 32l77.714 77.714h265.143q22.857 0 38.857-16t16-38.857zM765.143 562.857q9.714-23.429-8-40l-256-256q-10.286-10.857-25.714-10.857t-25.714 10.857l-256 256q-17.714 16.571-8 40 9.714 22.286 33.714 22.286h146.286v256q0 14.857 10.857 25.714t25.714 10.857h146.286q14.857 0 25.714-10.857t10.857-25.714v-256h146.286q24 0 33.714-22.286z" />
<glyph unicode="&#xf01a;" glyph-name="arrow-circle-o-down" horiz-adv-x="878" d="M640 347.428q0-6.857-5.714-13.714l-182.286-182.286q-6.286-5.143-13.143-5.143t-13.143 5.143l-182.857 182.857q-8.571 9.143-4 20 4.571 11.429 17.143 11.429h109.714v201.143q0 8 5.143 13.143t13.143 5.143h109.714q8 0 13.143-5.143t5.143-13.143v-201.143h109.714q8 0 13.143-5.143t5.143-13.143zM438.857 676.571q-84.571 0-156-41.714t-113.143-113.143-41.714-156 41.714-156 113.143-113.143 156-41.714 156 41.714 113.143 113.143 41.714 156-41.714 156-113.143 113.143-156 41.714zM877.714 365.714q0-119.429-58.857-220.286t-159.714-159.714-220.286-58.857-220.286 58.857-159.714 159.714-58.857 220.286 58.857 220.286 159.714 159.714 220.286 58.857 220.286-58.857 159.714-159.714 58.857-220.286z" />
<glyph unicode="&#xf01b;" glyph-name="arrow-circle-o-up" horiz-adv-x="878" d="M638.857 377.143q-4.571-11.429-17.143-11.429h-109.714v-201.143q0-8-5.143-13.143t-13.143-5.143h-109.714q-8 0-13.143 5.143t-5.143 13.143v201.143h-109.714q-8 0-13.143 5.143t-5.143 13.143q0 6.857 5.714 13.714l182.286 182.286q6.286 5.143 13.143 5.143t13.143-5.143l182.857-182.857q8.571-9.143 4-20zM438.857 676.571q-84.571 0-156-41.714t-113.143-113.143-41.714-156 41.714-156 113.143-113.143 156-41.714 156 41.714 113.143 113.143 41.714 156-41.714 156-113.143 113.143-156 41.714zM877.714 365.714q0-119.429-58.857-220.286t-159.714-159.714-220.286-58.857-220.286 58.857-159.714 159.714-58.857 220.286 58.857 220.286 159.714 159.714 220.286 58.857 220.286-58.857 159.714-159.714 58.857-220.286z" />
<glyph unicode="&#xf01c;" glyph-name="inbox" horiz-adv-x="878" d="M584.571 329.143h180.571q-0.571 1.714-1.429 4.571t-1.429 4.571l-121.143 283.429h-404.571l-121.143-283.429q-0.571-1.143-1.429-4.571t-1.429-4.571h180.571l54.286-109.714h182.857zM877.714 312v-275.429q0-14.857-10.857-25.714t-25.714-10.857h-804.571q-14.857 0-25.714 10.857t-10.857 25.714v275.429q0 35.429 14.286 70.286l136 315.429q5.714 14.286 20.857 24t30 9.714h475.429q14.857 0 30-9.714t20.857-24l136-315.429q14.286-34.857 14.286-70.286z" />
<glyph unicode="&#xf01d;" glyph-name="play-circle-o" horiz-adv-x="878" d="M676.571 365.714q0-21.143-18.286-31.429l-310.857-182.857q-8.571-5.143-18.286-5.143-9.143 0-18.286 4.571-18.286 10.857-18.286 32v365.714q0 21.143 18.286 32 18.857 10.286 36.571-0.571l310.857-182.857q18.286-10.286 18.286-31.429zM749.714 365.714q0 84.571-41.714 156t-113.143 113.143-156 41.714-156-41.714-113.143-113.143-41.714-156 41.714-156 113.143-113.143 156-41.714 156 41.714 113.143 113.143 41.714 156zM877.714 365.714q0-119.429-58.857-220.286t-159.714-159.714-220.286-58.857-220.286 58.857-159.714 159.714-58.857 220.286 58.857 220.286 159.714 159.714 220.286 58.857 220.286-58.857 159.714-159.714 58.857-220.286z" />
<glyph unicode="&#xf01e;" glyph-name="repeat, rotate-right" horiz-adv-x="878" d="M877.714 731.428v-256q0-14.857-10.857-25.714t-25.714-10.857h-256q-24 0-33.714 22.857-9.714 22.286 8 39.429l78.857 78.857q-84.571 78.286-199.429 78.286-59.429 0-113.429-23.143t-93.429-62.571-62.571-93.429-23.143-113.429 23.143-113.429 62.571-93.429 93.429-62.571 113.429-23.143q68 0 128.571 29.714t102.286 84q4 5.714 13.143 6.857 8 0 14.286-5.143l78.286-78.857q5.143-4.571 5.429-11.714t-4.286-12.857q-62.286-75.429-150.857-116.857t-186.857-41.429q-89.143 0-170.286 34.857t-140 93.714-93.714 140-34.857 170.286 34.857 170.286 93.714 140 140 93.714 170.286 34.857q84 0 162.571-31.714t139.714-89.429l74.286 73.714q16.571 17.714 40 8 22.286-9.714 22.286-33.714z" />
<glyph unicode="&#xf021;" glyph-name="refresh" horiz-adv-x="878" d="M863.429 274.285q0-2.857-0.571-4-36.571-153.143-153.143-248.286t-273.143-95.143q-83.429 0-161.429 31.429t-139.143 89.714l-73.714-73.714q-10.857-10.857-25.714-10.857t-25.714 10.857-10.857 25.714v256q0 14.857 10.857 25.714t25.714 10.857h256q14.857 0 25.714-10.857t10.857-25.714-10.857-25.714l-78.286-78.286q40.571-37.714 92-58.286t106.857-20.571q76.571 0 142.857 37.143t106.286 102.286q6.286 9.714 30.286 66.857 4.571 13.143 17.143 13.143h109.714q7.429 0 12.857-5.429t5.429-12.857zM877.714 731.428v-256q0-14.857-10.857-25.714t-25.714-10.857h-256q-14.857 0-25.714 10.857t-10.857 25.714 10.857 25.714l78.857 78.857q-84.571 78.286-199.429 78.286-76.571 0-142.857-37.143t-106.286-102.286q-6.286-9.714-30.286-66.857-4.571-13.143-17.143-13.143h-113.714q-7.429 0-12.857 5.429t-5.429 12.857v4q37.143 153.143 154.286 248.286t274.286 95.143q83.429 0 162.286-31.714t140-89.429l74.286 73.714q10.857 10.857 25.714 10.857t25.714-10.857 10.857-25.714z" />
<glyph unicode="&#xf022;" glyph-name="list-alt" d="M219.429 201.143v-36.571q0-7.429-5.429-12.857t-12.857-5.429h-36.571q-7.429 0-12.857 5.429t-5.429 12.857v36.571q0 7.429 5.429 12.857t12.857 5.429h36.571q7.429 0 12.857-5.429t5.429-12.857zM219.429 347.428v-36.571q0-7.429-5.429-12.857t-12.857-5.429h-36.571q-7.429 0-12.857 5.429t-5.429 12.857v36.571q0 7.429 5.429 12.857t12.857 5.429h36.571q7.429 0 12.857-5.429t5.429-12.857zM219.429 493.714v-36.571q0-7.429-5.429-12.857t-12.857-5.429h-36.571q-7.429 0-12.857 5.429t-5.429 12.857v36.571q0 7.429 5.429 12.857t12.857 5.429h36.571q7.429 0 12.857-5.429t5.429-12.857zM877.714 201.143v-36.571q0-7.429-5.429-12.857t-12.857-5.429h-548.571q-7.429 0-12.857 5.429t-5.429 12.857v36.571q0 7.429 5.429 12.857t12.857 5.429h548.571q7.429 0 12.857-5.429t5.429-12.857zM877.714 347.428v-36.571q0-7.429-5.429-12.857t-12.857-5.429h-548.571q-7.429 0-12.857 5.429t-5.429 12.857v36.571q0 7.429 5.429 12.857t12.857 5.429h548.571q7.429 0 12.857-5.429t5.429-12.857zM877.714 493.714v-36.571q0-7.429-5.429-12.857t-12.857-5.429h-548.571q-7.429 0-12.857 5.429t-5.429 12.857v36.571q0 7.429 5.429 12.857t12.857 5.429h548.571q7.429 0 12.857-5.429t5.429-12.857zM950.857 91.428v475.429q0 7.429-5.429 12.857t-12.857 5.429h-841.143q-7.429 0-12.857-5.429t-5.429-12.857v-475.429q0-7.429 5.429-12.857t12.857-5.429h841.143q7.429 0 12.857 5.429t5.429 12.857zM1024 713.143v-621.714q0-37.714-26.857-64.571t-64.571-26.857h-841.143q-37.714 0-64.571 26.857t-26.857 64.571v621.714q0 37.714 26.857 64.571t64.571 26.857h841.143q37.714 0 64.571-26.857t26.857-64.571z" />
<glyph unicode="&#xf023;" glyph-name="lock" horiz-adv-x="658" d="M182.857 438.857h292.571v109.714q0 60.571-42.857 103.429t-103.429 42.857-103.429-42.857-42.857-103.429v-109.714zM658.286 384v-329.143q0-22.857-16-38.857t-38.857-16h-548.571q-22.857 0-38.857 16t-16 38.857v329.143q0 22.857 16 38.857t38.857 16h18.286v109.714q0 105.143 75.429 180.571t180.571 75.429 180.571-75.429 75.429-180.571v-109.714h18.286q22.857 0 38.857-16t16-38.857z" />
<glyph unicode="&#xf024;" glyph-name="flag" horiz-adv-x="1061" d="M182.857 731.428q0-41.143-36.571-62.857v-723.429q0-7.429-5.429-12.857t-12.857-5.429h-36.571q-7.429 0-12.857 5.429t-5.429 12.857v723.429q-36.571 21.714-36.571 62.857 0 30.286 21.429 51.714t51.714 21.429 51.714-21.429 21.429-51.714zM1024 694.857v-436q0-14.286-7.143-22t-22.571-15.714q-122.857-66.286-210.857-66.286-34.857 0-70.571 12.571t-62 27.429-66 27.429-81.429 12.571q-109.714 0-265.143-83.429-9.714-5.143-18.857-5.143-14.857 0-25.714 10.857t-10.857 25.714v424q0 18.286 17.714 31.429 12 8 45.143 24.571 134.857 68.571 240.571 68.571 61.143 0 114.286-16.571t125.143-50.286q21.714-10.857 50.286-10.857 30.857 0 67.143 12t62.857 26.857 50.286 26.857 31.143 12q14.857 0 25.714-10.857t10.857-25.714z" />
<glyph unicode="&#xf025;" glyph-name="headphones" horiz-adv-x="951" d="M950.857 371.428q0-94.857-34.286-179.429l-11.429-28-105.714-18.857q-12.571-47.429-51.714-78t-89.429-30.571v-18.286q0-8-5.143-13.143t-13.143-5.143h-36.571q-8 0-13.143 5.143t-5.143 13.143v329.143q0 8 5.143 13.143t13.143 5.143h36.571q8 0 13.143-5.143t5.143-13.143v-18.286q40.571 0 74.286-20.286t53.143-54.571l38.857 6.857q16.571 54.286 16.571 110.286 0 84.571-50.286 159.429t-135.143 119.429-180.286 44.571-180.286-44.571-135.143-119.429-50.286-159.429q0-56 16.571-110.286l38.857-6.857q19.429 34.286 53.143 54.571t74.286 20.286v18.286q0 8 5.143 13.143t13.143 5.143h36.571q8 0 13.143-5.143t5.143-13.143v-329.143q0-8-5.143-13.143t-13.143-5.143h-36.571q-8 0-13.143 5.143t-5.143 13.143v18.286q-50.286 0-89.429 30.571t-51.714 78l-105.714 18.857-11.429 28q-34.286 84.571-34.286 179.429 0 86.286 38.286 166.286t102.286 138.571 152 93.429 182.857 34.857 182.857-34.857 152-93.429 102.286-138.571 38.286-166.286z" />
<glyph unicode="&#xf026;" glyph-name="volume-off" horiz-adv-x="439" d="M438.857 676.571v-621.714q0-14.857-10.857-25.714t-25.714-10.857-25.714 10.857l-190.286 190.286h-149.714q-14.857 0-25.714 10.857t-10.857 25.714v219.429q0 14.857 10.857 25.714t25.714 10.857h149.714l190.286 190.286q10.857 10.857 25.714 10.857t25.714-10.857 10.857-25.714z" />
<glyph unicode="&#xf027;" glyph-name="volume-down" horiz-adv-x="658" d="M438.857 676.571v-621.714q0-14.857-10.857-25.714t-25.714-10.857-25.714 10.857l-190.286 190.286h-149.714q-14.857 0-25.714 10.857t-10.857 25.714v219.429q0 14.857 10.857 25.714t25.714 10.857h149.714l190.286 190.286q10.857 10.857 25.714 10.857t25.714-10.857 10.857-25.714zM658.286 365.714q0-43.429-24.286-80.857t-64.286-53.429q-5.714-2.857-14.286-2.857-14.857 0-25.714 10.571t-10.857 26q0 12 6.857 20.286t16.571 14.286 19.429 13.143 16.571 20.286 6.857 32.571-6.857 32.571-16.571 20.286-19.429 13.143-16.571 14.286-6.857 20.286q0 15.429 10.857 26t25.714 10.571q8.571 0 14.286-2.857 40-15.429 64.286-53.143t24.286-81.143z" />
<glyph unicode="&#xf028;" glyph-name="volume-up" horiz-adv-x="951" d="M438.857 676.571v-621.714q0-14.857-10.857-25.714t-25.714-10.857-25.714 10.857l-190.286 190.286h-149.714q-14.857 0-25.714 10.857t-10.857 25.714v219.429q0 14.857 10.857 25.714t25.714 10.857h149.714l190.286 190.286q10.857 10.857 25.714 10.857t25.714-10.857 10.857-25.714zM658.286 365.714q0-43.429-24.286-80.857t-64.286-53.429q-5.714-2.857-14.286-2.857-14.857 0-25.714 10.571t-10.857 26q0 12 6.857 20.286t16.571 14.286 19.429 13.143 16.571 20.286 6.857 32.571-6.857 32.571-16.571 20.286-19.429 13.143-16.571 14.286-6.857 20.286q0 15.429 10.857 26t25.714 10.571q8.571 0 14.286-2.857 40-15.429 64.286-53.143t24.286-81.143zM804.571 365.714q0-87.429-48.571-161.429t-128.571-107.714q-7.429-2.857-14.286-2.857-15.429 0-26.286 10.857t-10.857 25.714q0 22.286 22.286 33.714 32 16.571 43.429 25.143 42.286 30.857 66 77.429t23.714 99.143-23.714 99.143-66 77.429q-11.429 8.571-43.429 25.143-22.286 11.429-22.286 33.714 0 14.857 10.857 25.714t25.714 10.857q7.429 0 14.857-2.857 80-33.714 128.571-107.714t48.571-161.429zM950.857 365.714q0-131.429-72.571-241.429t-193.143-162q-7.429-2.857-14.857-2.857-14.857 0-25.714 10.857t-10.857 25.714q0 20.571 22.286 33.714 4 2.286 12.857 6t12.857 6q26.286 14.286 46.857 29.143 70.286 52 109.714 129.714t39.429 165.143-39.429 165.143-109.714 129.714q-20.571 14.857-46.857 29.143-4 2.286-12.857 6t-12.857 6q-22.286 13.143-22.286 33.714 0 14.857 10.857 25.714t25.714 10.857q7.429 0 14.857-2.857 120.571-52 193.143-162t72.571-241.429z" />
<glyph unicode="&#xf029;" glyph-name="qrcode" horiz-adv-x="805" d="M219.429 219.428v-73.143h-73.143v73.143h73.143zM219.429 658.285v-73.143h-73.143v73.143h73.143zM658.286 658.285v-73.143h-73.143v73.143h73.143zM73.143 73.714h219.429v218.857h-219.429v-218.857zM73.143 512h219.429v219.429h-219.429v-219.429zM512 512h219.429v219.429h-219.429v-219.429zM365.714 365.714v-365.714h-365.714v365.714h365.714zM658.286 73.143v-73.143h-73.143v73.143h73.143zM804.571 73.143v-73.143h-73.143v73.143h73.143zM804.571 365.714v-219.429h-219.429v73.143h-73.143v-219.429h-73.143v365.714h219.429v-73.143h73.143v73.143h73.143zM365.714 804.571v-365.714h-365.714v365.714h365.714zM804.571 804.571v-365.714h-365.714v365.714h365.714z" />
<glyph unicode="&#xf02a;" glyph-name="barcode" d="M36 0h-36v804.571h36v-804.571zM72 0.571h-18.286v804h18.286v-804zM125.714 0.571h-17.714v804h17.714v-804zM215.429 0.571h-17.714v804h17.714v-804zM305.143 0.571h-35.429v804h35.429v-804zM377.143 0.571h-17.714v804h17.714v-804zM413.143 0.571h-17.714v804h17.714v-804zM449.143 0.571h-17.714v804h17.714v-804zM538.857 0.571h-36v804h36v-804zM628.571 0.571h-36v804h36v-804zM700.571 0.571h-36v804h36v-804zM772.571 0.571h-36v804h36v-804zM826.286 0.571h-36v804h36v-804zM934.286 0.571h-53.714v804h53.714v-804zM970.286 0.571h-18.286v804h18.286v-804zM1024 0h-36v804.571h36v-804.571z" />
<glyph unicode="&#xf02b;" glyph-name="tag" horiz-adv-x="866" d="M256 621.714q0 30.286-21.429 51.714t-51.714 21.429-51.714-21.429-21.429-51.714 21.429-51.714 51.714-21.429 51.714 21.429 21.429 51.714zM865.714 292.571q0-30.286-21.143-51.429l-280.571-281.143q-22.286-21.143-52-21.143-30.286 0-51.429 21.143l-408.571 409.143q-21.714 21.143-36.857 57.714t-15.143 66.857v237.714q0 29.714 21.714 51.429t51.429 21.714h237.714q30.286 0 66.857-15.143t58.286-36.857l408.571-408q21.143-22.286 21.143-52z" />
<glyph unicode="&#xf02c;" glyph-name="tags" horiz-adv-x="1085" d="M256 621.714q0 30.286-21.429 51.714t-51.714 21.429-51.714-21.429-21.429-51.714 21.429-51.714 51.714-21.429 51.714 21.429 21.429 51.714zM865.714 292.571q0-30.286-21.143-51.429l-280.571-281.143q-22.286-21.143-52-21.143-30.286 0-51.429 21.143l-408.571 409.143q-21.714 21.143-36.857 57.714t-15.143 66.857v237.714q0 29.714 21.714 51.429t51.429 21.714h237.714q30.286 0 66.857-15.143t58.286-36.857l408.571-408q21.143-22.286 21.143-52zM1085.143 292.571q0-30.286-21.143-51.429l-280.571-281.143q-22.286-21.143-52-21.143-20.571 0-33.714 8t-30.286 25.714l268.571 268.571q21.143 21.143 21.143 51.429 0 29.714-21.143 52l-408.571 408q-21.714 21.714-58.286 36.857t-66.857 15.143h128q30.286 0 66.857-15.143t58.286-36.857l408.571-408q21.143-22.286 21.143-52z" />
<glyph unicode="&#xf02d;" glyph-name="book" horiz-adv-x="953" d="M936.571 604.571q22.857-32.571 10.286-73.714l-157.143-517.714q-10.857-36.571-43.714-61.429t-70-24.857h-527.429q-44 0-84.857 30.571t-56.857 75.143q-13.714 38.286-1.143 72.571 0 2.286 1.714 15.429t2.286 21.143q0.571 4.571-1.714 12.286t-1.714 11.143q1.143 6.286 4.571 12t9.429 13.429 9.429 13.429q13.143 21.714 25.714 52.286t17.143 52.286q1.714 5.714 0.286 17.143t-0.286 16q1.714 6.286 9.714 16t9.714 13.143q12 20.571 24 52.571t14.286 51.429q0.571 5.143-1.429 18.286t0.286 16q2.286 7.429 12.571 17.429t12.571 12.857q10.857 14.857 24.286 48.286t15.714 55.143q0.571 4.571-1.714 14.571t-1.143 15.143q1.143 4.571 5.143 10.286t10.286 13.143 9.714 12q4.571 6.857 9.429 17.429t8.571 20 9.143 20.571 11.143 18.286 15.143 13.429 20.571 6.571 27.143-3.143l-0.571-1.714q21.714 5.143 29.143 5.143h434.857q42.286 0 65.143-32t10.286-74.286l-156.571-517.714q-20.571-68-40.857-87.714t-73.429-19.714h-496.571q-15.429 0-21.714-8.571-6.286-9.143-0.571-24.571 13.714-40 82.286-40h527.429q16.571 0 32 8.857t20 23.714l171.429 564q4 12.571 2.857 32.571 21.714-8.571 33.714-24.571zM328.571 603.428q-2.286-7.429 1.143-12.857t11.429-5.429h347.429q7.429 0 14.571 5.429t9.429 12.857l12 36.571q2.286 7.429-1.143 12.857t-11.429 5.429h-347.429q-7.429 0-14.571-5.429t-9.429-12.857zM281.143 457.143q-2.286-7.429 1.143-12.857t11.429-5.429h347.429q7.429 0 14.571 5.429t9.429 12.857l12 36.571q2.286 7.429-1.143 12.857t-11.429 5.429h-347.429q-7.429 0-14.571-5.429t-9.429-12.857z" />
<glyph unicode="&#xf02e;" glyph-name="bookmark" horiz-adv-x="731" d="M665.143 804.571q13.143 0 25.143-5.143 18.857-7.429 30-23.429t11.143-35.429v-736.571q0-19.429-11.143-35.429t-30-23.429q-10.857-4.571-25.143-4.571-27.429 0-47.429 18.286l-252 242.286-252-242.286q-20.571-18.857-47.429-18.857-13.143 0-25.143 5.143-18.857 7.429-30 23.429t-11.143 35.429v736.571q0 19.429 11.143 35.429t30 23.429q12 5.143 25.143 5.143h598.857z" />
<glyph unicode="&#xf02f;" glyph-name="print" horiz-adv-x="951" d="M219.429 0h512v146.286h-512v-146.286zM219.429 365.714h512v219.429h-91.429q-22.857 0-38.857 16t-16 38.857v91.429h-365.714v-365.714zM877.714 329.143q0 14.857-10.857 25.714t-25.714 10.857-25.714-10.857-10.857-25.714 10.857-25.714 25.714-10.857 25.714 10.857 10.857 25.714zM950.857 329.143v-237.714q0-7.429-5.429-12.857t-12.857-5.429h-128v-91.429q0-22.857-16-38.857t-38.857-16h-548.571q-22.857 0-38.857 16t-16 38.857v91.429h-128q-7.429 0-12.857 5.429t-5.429 12.857v237.714q0 45.143 32.286 77.429t77.429 32.286h36.571v310.857q0 22.857 16 38.857t38.857 16h384q22.857 0 50.286-11.429t43.429-27.429l86.857-86.857q16-16 27.429-43.429t11.429-50.286v-146.286h36.571q45.143 0 77.429-32.286t32.286-77.429z" />
<glyph unicode="&#xf030;" glyph-name="camera" horiz-adv-x="1097" d="M548.571 493.714q68 0 116.286-48.286t48.286-116.286-48.286-116.286-116.286-48.286-116.286 48.286-48.286 116.286 48.286 116.286 116.286 48.286zM950.857 731.428q60.571 0 103.429-42.857t42.857-103.429v-512q0-60.571-42.857-103.429t-103.429-42.857h-804.571q-60.571 0-103.429 42.857t-42.857 103.429v512q0 60.571 42.857 103.429t103.429 42.857h128l29.143 77.714q10.857 28 39.714 48.286t59.143 20.286h292.571q30.286 0 59.143-20.286t39.714-48.286l29.143-77.714h128zM548.571 73.143q105.714 0 180.857 75.143t75.143 180.857-75.143 180.857-180.857 75.143-180.857-75.143-75.143-180.857 75.143-180.857 180.857-75.143z" />
<glyph unicode="&#xf031;" glyph-name="font" horiz-adv-x="951" d="M414.286 558.285l-97.143-257.143q18.857 0 78-1.143t91.714-1.143q10.857 0 32.571 1.143-49.714 144.571-105.143 258.286zM0-73.143l1.143 45.143q13.143 4 32 7.143t32.571 6 28.286 8.286 25.429 16.571 17.714 28.857l135.429 352 160 413.714h73.143q4.571-8 6.286-12l117.143-274.286q18.857-44.571 60.571-147.143t65.143-156.857q8.571-19.429 33.143-82.571t41.143-96.286q11.429-25.714 20-32.571 10.857-8.571 50.286-16.857t48-11.714q3.429-21.714 3.429-32.571 0-2.286-0.286-7.429t-0.286-7.429q-36 0-108.571 4.571t-109.143 4.571q-43.429 0-122.857-4t-101.714-4.571q0 24.571 2.286 44.571l74.857 16q0.571 0 7.143 1.429t8.857 2 8.286 2.571 8.571 3.714 6.286 4.571 5.143 6.286 1.429 8q0 9.143-17.714 55.143t-41.143 101.429-24 57.143l-257.143 1.143q-14.857-33.143-43.714-111.714t-28.857-92.857q0-12.571 8-21.429t24.857-14 27.714-7.714 32.571-4.857 23.429-2.286q0.571-10.857 0.571-33.143 0-5.143-1.143-15.429-33.143 0-99.714 5.714t-99.714 5.714q-4.571 0-15.143-2.286t-12.286-2.286q-45.714-8-107.429-8z" />
</font>
</defs>
</svg>
